<?xml version="1.0" encoding="utf-8"?>
<!-- Generator: Adobe Illustrator 26.0.0, SVG Export Plug-In . SVG Version: 6.00 Build 0)  -->
<svg version="1.1" id="Layer_1" xmlns="http://www.w3.org/2000/svg" xmlns:xlink="http://www.w3.org/1999/xlink" x="0px" y="0px"
	 viewBox="0 0 199.6 199.6" style="enable-background:new 0 0 199.6 199.6;" xml:space="preserve">
<style type="text/css">
	.st0{fill:#F8F0E9;}
</style>
<g>
	<path class="st0" d="M99.8,196.9c-13.6,0-25.6-7.1-32.1-19L56.3,157c-3.2-5.8-7.9-10.6-13.7-13.7l-20.9-11.4
		c-11.9-6.5-19-18.5-19-32.1s7.1-25.6,19-32.1l20.9-11.4c5.8-3.2,10.6-7.9,13.7-13.7l11.4-20.9c6.5-11.9,18.5-19,32.1-19
		s25.6,7.1,32.1,19l11.4,20.8c3.2,5.8,7.9,10.6,13.7,13.7l20.9,11.5c11.9,6.5,19,18.5,19,32.1s-7.1,25.6-19,32.1l-20.8,11.4
		c-5.8,3.2-10.6,7.9-13.7,13.7L132,177.9C125.4,189.8,113.4,196.9,99.8,196.9z"/>
	<path d="M99.8,3.7c12.2,0,24.5,6.2,31.2,18.5L142.4,43c3.3,6,8.2,10.9,14.1,14.1l20.8,11.4c24.7,13.5,24.7,48.9,0,62.4l-20.8,11.4
		c-6,3.3-10.9,8.2-14.1,14.1L131,177.3c-6.7,12.3-19,18.5-31.2,18.5s-24.5-6.2-31.2-18.5l-11.4-20.9c-3.3-6-8.2-10.9-14.1-14.1
		l-20.9-11.4c-24.7-13.5-24.7-48.9,0-62.4l20.9-11.4c6-3.3,10.9-8.2,14.1-14.1l11.4-20.8C75.3,9.9,87.6,3.7,99.8,3.7 M99.8,1.7
		c-13.9,0-26.3,7.3-33,19.5L55.4,42.1c-3,5.6-7.7,10.3-13.3,13.3L21.2,66.8C9,73.5,1.7,85.9,1.7,99.8s7.3,26.3,19.5,33L42,144.2
		c5.6,3.1,10.3,7.7,13.3,13.3l11.4,20.9c6.7,12.2,19,19.5,33,19.5c13.9,0,26.3-7.3,33-19.5l11.4-20.8c3.1-5.6,7.7-10.3,13.3-13.3
		l20.9-11.4c12.2-6.7,19.5-19,19.5-32.9s-7.3-26.3-19.5-33l-20.9-11.4c-5.6-3.1-10.3-7.7-13.3-13.3l-11.4-20.9
		C126.1,9,113.7,1.7,99.8,1.7L99.8,1.7z"/>
</g>
</svg>
