<svg width="44" height="49" viewBox="0 0 44 49" fill="none" xmlns="http://www.w3.org/2000/svg">
<path d="M31.5772 8.22641C28.741 5.62138 25.9049 3.01815 23.0687 0.416726C22.6379 0.0216425 22.505 0 22.489 0C22.4731 0 22.3401 -2.9678e-06 21.9147 0.411317L12.4171 9.1627L1.29216 19.3916C0.951818 19.7001 0.983719 19.7921 1.02094 19.9328C1.05817 20.0735 1.11134 20.1926 1.46232 20.1926H2.7971C3.61073 20.1926 4.72216 20.1926 5.53047 20.1926C5.53047 23.5048 5.53047 43.5567 5.53047 47.3073C5.53047 48.0325 5.55706 48.0325 6.21115 48.0325H16.6235C17.2722 48.0325 17.2722 47.9838 17.2722 47.3938C17.2722 44.9151 17.2722 42.4472 17.2722 39.9414C17.2809 39.166 17.4306 38.399 17.7136 37.6791C18.1072 36.7265 18.7683 35.9134 19.614 35.3415C20.4597 34.7696 21.4524 34.4645 22.4678 34.4643C23.8346 34.4639 25.1474 35.0079 26.1253 35.9799C27.1032 36.9518 27.6686 38.2746 27.7005 39.6653C27.7377 42.2253 27.7005 44.7473 27.7005 47.2856C27.7005 47.9675 27.7005 47.9946 28.4078 47.9946H38.7137C39.4316 47.9946 39.4317 47.9946 39.4317 47.2531V20.1926H43.6859C43.7428 20.1888 43.797 20.1669 43.8409 20.1299C43.8848 20.093 43.9161 20.043 43.9305 19.9869C43.9568 19.9289 43.9662 19.8645 43.9578 19.8012C43.9493 19.7379 43.9232 19.6784 43.8827 19.6297C39.8199 15.7925 35.6294 11.9445 31.5772 8.22641ZM40.7345 19.4836C40.3197 19.5161 39.0541 19.4024 38.8626 19.5864C38.8254 19.6189 38.7722 19.7704 38.7775 20.0897V47.2261H28.3706C28.3706 44.7852 28.3706 42.3552 28.3706 39.8981C28.3885 39.0893 28.2461 38.2851 27.952 37.5336C27.6579 36.782 27.2181 36.0984 26.6588 35.5236C26.0994 34.9488 25.4321 34.4946 24.6965 34.188C23.9609 33.8814 23.1722 33.7287 22.3774 33.7391C19.4685 33.7391 16.783 36.2503 16.6394 39.1079C16.5065 41.8572 16.6394 44.5633 16.5809 47.3073H6.1686V20.2467C6.20276 20.0135 6.17142 19.7752 6.07821 19.5594C6.05162 19.5323 5.92929 19.4674 5.38156 19.4674C4.62643 19.4998 3.0364 19.4241 2.25999 19.397L22.4678 0.811816L42.6755 19.3916L40.7345 19.4836Z" fill="black"/>
</svg>
