<svg width="15" height="15" viewBox="0 0 15 15" fill="none" xmlns="http://www.w3.org/2000/svg">
<path d="M7.49905 14.6415C6.08696 14.6415 4.70657 14.2227 3.53246 13.4382C2.35835 12.6537 1.44324 11.5386 0.902853 10.234C0.362469 8.92943 0.221079 7.49387 0.496565 6.10891C0.772051 4.72395 1.45204 3.45179 2.45054 2.45329C3.44904 1.45479 4.72121 0.774797 6.10617 0.499312C7.49113 0.223826 8.92668 0.365215 10.2313 0.9056C11.5359 1.44598 12.6509 2.36109 13.4355 3.53521C14.22 4.70932 14.6387 6.0897 14.6387 7.5018C14.6387 9.39535 13.8865 11.2114 12.5476 12.5503C11.2086 13.8893 9.39261 14.6415 7.49905 14.6415ZM7.49905 1.79006C6.36937 1.79006 5.26507 2.12505 4.32578 2.75266C3.38649 3.38027 2.6544 4.27233 2.22209 5.31601C1.78978 6.35969 1.67667 7.50813 1.89706 8.6161C2.11745 9.72407 2.66144 10.7418 3.46024 11.5406C4.25904 12.3394 5.27678 12.8834 6.38475 13.1038C7.49271 13.3242 8.64115 13.2111 9.68484 12.7788C10.7285 12.3464 11.6206 11.6144 12.2482 10.6751C12.8758 9.73578 13.2108 8.63147 13.2108 7.5018C13.2117 6.75112 13.0647 6.00762 12.7781 5.31382C12.4914 4.62001 12.0709 3.98951 11.5404 3.45837C11.0099 2.92723 10.3799 2.50587 9.68649 2.21838C8.99304 1.93089 8.24973 1.78292 7.49905 1.78292V1.79006Z" fill="#231F20"/>
</svg>
