<svg xmlns="http://www.w3.org/2000/svg" viewBox="0 0 40 40"><g id="Layer_2" data-name="Layer 2"><g id="Layer_1-2" data-name="Layer 1"><path d="M39.93,8.53l-1.2-2.71,0-.08a.78.78,0,0,0-.7-.47h0a.81.81,0,0,0-.73.42c-.14.25-.37.73-.67,1.33-4.21,8.51-5.74,10-6.24,10.28-.39-.91,0-5,.16-6.35.1-1,.18-1.83.2-2.38A3.86,3.86,0,0,0,29.66,5.4a3,3,0,0,0-2-.76h-.25a3.68,3.68,0,0,0-2.28,1.07,6.69,6.69,0,0,1-.6.45,8.9,8.9,0,0,1,0-2.2,1.71,1.71,0,0,0-1.62-2.1c-.26,0-.32-.09-.32-.1a.82.82,0,0,1,0-.18C22.34.63,21.83,0,20,0c-2.81,0-4.22,1.18-5.84,2.55A19.77,19.77,0,0,1,5.67,7a8.28,8.28,0,0,0-1.22.44A7.85,7.85,0,0,0,0,14.58c0,4.14,3.85,7.77,8.23,7.77,8.62,0,11.45-8.31,12.37-13.28a3.63,3.63,0,0,0,1.9,1.74,3.18,3.18,0,0,0,1.08.18,5.15,5.15,0,0,0,2-.45A63,63,0,0,0,26,25.07a21.62,21.62,0,0,1,0,5.71,15.66,15.66,0,0,1-1.46,4.94,2.1,2.1,0,0,0,.08,2.12c.26.33,2,2.16,3.1,2.16a2.15,2.15,0,0,0,1.58-1c2.16-3,2.23-6.83,2.3-10.53v-.08c0-.63,0-1.25.05-1.86a11,11,0,0,1,2-6A67.55,67.55,0,0,0,40,9.09.78.78,0,0,0,39.93,8.53Zm-14,28.35a.67.67,0,0,1,0-.39A17.54,17.54,0,0,0,27.6,31a23.05,23.05,0,0,0,0-6.18,58.29,58.29,0,0,1-.33-15.56.8.8,0,0,0-.79-.92.78.78,0,0,0-.41.12,5.28,5.28,0,0,1-2.5.92A1.69,1.69,0,0,1,23,9.31c-.92-.33-1.39-1.66-1.85-2.95-.05-.15-.11-.31-.17-.46.07-.78.1-1.56.1-2.31a.8.8,0,0,0-1.6,0c0,.73,0,1.49-.09,2.27a.77.77,0,0,0,0,.15c-.3,3.5-2,14.74-11.17,14.74-3.53,0-6.63-2.88-6.63-6.17A6.24,6.24,0,0,1,5.13,8.91a6.5,6.5,0,0,1,1-.34,20.93,20.93,0,0,0,9.09-4.8C16.74,2.46,17.77,1.6,20,1.6c.78,0,.91.11.92.12a1,1,0,0,1,0,.18,1.77,1.77,0,0,0,1.72,1.55.9.9,0,0,1,.25,0s0,.09,0,.32a10.08,10.08,0,0,0,0,2.69,1.62,1.62,0,0,0,.79,1.23,1.3,1.3,0,0,0,.58.14A1.59,1.59,0,0,0,25,7.71,5.62,5.62,0,0,0,26.09,7a2.38,2.38,0,0,1,1.34-.72h.2a1.42,1.42,0,0,1,.95.34,2.4,2.4,0,0,1,.53,1.94c0,.52-.09,1.33-.19,2.26-.4,4-.59,6.72.33,7.74a1.27,1.27,0,0,0,.93.43h.07c1.6,0,3.69-3,7.67-11l.42,1a67.48,67.48,0,0,1-6,10.8,12.61,12.61,0,0,0-2.31,6.84c0,.65,0,1.31,0,2-.07,3.46-.14,7-2,9.63a1.17,1.17,0,0,1-.3.28A6.71,6.71,0,0,1,25.92,36.88Z"/></g></g></svg>