<svg xmlns="http://www.w3.org/2000/svg" viewBox="0 0 42.75 40"><defs><style>.cls-1{fill:#010101;}</style></defs><g id="Layer_2" data-name="Layer 2"><g id="Layer_1-2" data-name="Layer 1"><path class="cls-1" d="M5.55,40c-1.56,0-2.8-1.85-2.8-4.18a5.57,5.57,0,0,1,.33-1.94A5.61,5.61,0,0,1,0,28.94a6,6,0,0,1,.62-2.56A4.62,4.62,0,0,1,0,24.15,4.24,4.24,0,0,1,1,21.4a4.26,4.26,0,0,1-1-2.75A4.53,4.53,0,0,1,1.85,15a4.55,4.55,0,0,1-.47-1.9A4.46,4.46,0,0,1,2.85,9.87,5,5,0,0,1,2.75,9,5.09,5.09,0,0,1,7.4,4.22a5.64,5.64,0,0,1,5-2.84A6.68,6.68,0,0,1,15,1.9a6,6,0,0,1,8.73,0,6.29,6.29,0,0,1,2.51-.52,5.87,5.87,0,0,1,4.37,1.89,6.29,6.29,0,0,1,2.51-.52c3,0,5.51,2.14,5.55,4.79a4.76,4.76,0,0,1,2.76,4.18,4.93,4.93,0,0,1-.1.85,4.57,4.57,0,0,1,1.47,3.28A4.73,4.73,0,0,1,40,20c0,3.09-3.42,5.51-7,4.61a6.13,6.13,0,0,1-6.55,1.09,3.86,3.86,0,0,1-.81.71,5.54,5.54,0,0,1-2.23,7.26,3.4,3.4,0,0,1,.05.71c0,2.33-1.23,4.18-2.8,4.18s-2.8-1.85-2.8-4.18a3.4,3.4,0,0,1,.05-.71,5.52,5.52,0,0,1-.9-9,4.38,4.38,0,0,1-.52-2c0-2.66,2.46-4.84,5.55-4.84a6.63,6.63,0,0,1,2.51.52,5.85,5.85,0,0,1,5.84-1.71,7.6,7.6,0,0,1,1.23-.9,4.07,4.07,0,0,1,.1-.76,4.44,4.44,0,0,1-1.47-3.22,5,5,0,0,1-1.57-1.24,6.13,6.13,0,0,1-2.51.53,5.86,5.86,0,0,1-4.37-1.9,6.51,6.51,0,0,1-5,0A5.74,5.74,0,0,1,13.33,11a3.87,3.87,0,0,1-.95,1.23,5,5,0,0,1,.1.86,4.53,4.53,0,0,1-1.85,3.6,4.59,4.59,0,0,1,.47,1.9,4.26,4.26,0,0,1-1,2.75,4.31,4.31,0,0,1,1,2.76,4.52,4.52,0,0,1-.61,2.23,5.43,5.43,0,0,1,.61,2.56A5.5,5.5,0,0,1,8,33.78a6.7,6.7,0,0,1,.33,1.95c0,2.42-1.23,4.27-2.8,4.27ZM12.43,2.89A4.08,4.08,0,0,0,8.59,5.22.79.79,0,0,1,8,5.69a3.7,3.7,0,0,0-3.7,3.37,3.46,3.46,0,0,0,.14.86.74.74,0,0,1-.23.8,3,3,0,0,0-1.33,2.42,3.06,3.06,0,0,0,.57,1.71.83.83,0,0,1,.09.57.93.93,0,0,1-.33.48,3.18,3.18,0,0,0-1.71,2.75,3.23,3.23,0,0,0,1,2.23.7.7,0,0,1,0,1,2.91,2.91,0,0,0-.38,4,.79.79,0,0,1,.05.85,4,4,0,0,0,2.13,6,.77.77,0,0,1,.47.42.71.71,0,0,1,0,.62,4.16,4.16,0,0,0-.48,2c0,1.56.71,2.7,1.33,2.7s1.33-1.14,1.33-2.7a3.73,3.73,0,0,0-.47-2,.7.7,0,0,1,.42-1,4.08,4.08,0,0,0,2.8-3.85A4,4,0,0,0,9,26.76a.79.79,0,0,1,0-.85,2.77,2.77,0,0,0,.61-1.76,3.36,3.36,0,0,0-1-2.23.68.68,0,0,1,0-1,2.94,2.94,0,0,0,.42-3.94A.83.83,0,0,1,9,16.37a.86.86,0,0,1,.33-.47A3.21,3.21,0,0,0,11,13.14a3.39,3.39,0,0,0-.14-.85.75.75,0,0,1,.23-.81,3.21,3.21,0,0,0,1.05-1.37.8.8,0,0,1,.61-.48,4.15,4.15,0,0,0,3.18-1.71.76.76,0,0,1,1-.23,4.8,4.8,0,0,0,4.65,0,.76.76,0,0,1,1,.23,4.2,4.2,0,0,0,3.56,1.76,4.69,4.69,0,0,0,2.32-.62.77.77,0,0,1,1,.24,3.76,3.76,0,0,0,1.8,1.42.85.85,0,0,1,.48.76s0,.15-.05.19A3.16,3.16,0,0,0,33,14.28a.75.75,0,0,1,.24.81,3,3,0,0,0-.15.85s0,.29,0,.34a.67.67,0,0,1-.47.75,3.94,3.94,0,0,0-1.52,1,.8.8,0,0,1-.76.24,4.34,4.34,0,0,0-5,1.51.76.76,0,0,1-1,.24,4.47,4.47,0,0,0-2.33-.62C19.83,19.45,18,21,18,22.82a2.73,2.73,0,0,0,.62,1.76.62.62,0,0,1,.14.57.64.64,0,0,1-.33.47,3.92,3.92,0,0,0-1.8,3.32A4,4,0,0,0,19,32.65a.72.72,0,0,1,.42.8,8.64,8.64,0,0,0-.09.95c0,1.57.71,2.71,1.33,2.71S22,36,22,34.4a6.83,6.83,0,0,0-.1-.95.63.63,0,0,1,.38-.76A4.09,4.09,0,0,0,24.72,29,4.21,4.21,0,0,0,24,26.67a.83.83,0,0,1-.1-.57.79.79,0,0,1,.38-.48,3.89,3.89,0,0,0,1.33-1.18.76.76,0,0,1,1-.24,4.72,4.72,0,0,0,5.6-.76A.8.8,0,0,1,33,23.2c2.85.9,5.5-.9,5.5-3.13,0,0,0-.28,0-.33a.69.69,0,0,1,.48-.76,3.41,3.41,0,0,0,2.32-3A3.2,3.2,0,0,0,40,13.47a.73.73,0,0,1-.23-.8,3.39,3.39,0,0,0,.14-.86,3.39,3.39,0,0,0-2.33-3A.85.85,0,0,1,37.06,8a.35.35,0,0,1,0-.19,3.77,3.77,0,0,0-4-3.51,4.69,4.69,0,0,0-2.32.61.76.76,0,0,1-1-.23,4.24,4.24,0,0,0-3.56-1.76,4.69,4.69,0,0,0-2.32.62.77.77,0,0,1-1-.24,4.23,4.23,0,0,0-3.56-1.75,4.23,4.23,0,0,0-3.56,1.75.75.75,0,0,1-1,.24,4.1,4.1,0,0,0-2.33-.67Z"/></g></g></svg>