<svg xmlns="http://www.w3.org/2000/svg" viewBox="0 0 40 30.56"><defs><style>.cls-1{fill:#010101;}</style></defs><g id="Layer_2" data-name="Layer 2"><g id="Layer_1-2" data-name="Layer 1"><path class="cls-1" d="M39.06,1a3.31,3.31,0,0,0-2.4-1H13.08A13.16,13.16,0,0,0,0,13.12v12.6a4.75,4.75,0,0,0,2.49,4.22,5.1,5.1,0,0,0,2.4.62,4.77,4.77,0,0,0,2.54-.71c1.65-1,3.07-1.82,4.14-2.4.84-.44,1.91-.93,3-1.42,3.56-1.52,7.88-3.38,9.17-6.68a2.48,2.48,0,0,0,1.78.36c1.69-.22,2.93-1.87,4.18-3.47a10.65,10.65,0,0,1,2.22-2.4,9.47,9.47,0,0,0,2.36-2.9,14.35,14.35,0,0,1,4.09-4.58A3.47,3.47,0,0,0,40,3.47,3.33,3.33,0,0,0,39.06,1ZM37.68,5.16a14.9,14.9,0,0,0-4.53,5,8.86,8.86,0,0,1-2,2.49,12.5,12.5,0,0,0-2.53,2.71c-1.07,1.38-2.14,2.76-3.3,2.94a1.3,1.3,0,0,1-1.37-.71c-1.7-2.49-1.47-9.83-1.21-12.41a.66.66,0,0,0-.62-.76.68.68,0,0,0-.75.62c-.05.4-.85,9.52,1.29,13.08C22,21.31,17.57,23.22,14,24.78c-1.15.49-2.26,1-3.15,1.47-1.07.58-2.54,1.42-4.19,2.45a3.5,3.5,0,0,1-5.29-3V13.12a11.72,11.72,0,0,1,11.7-11.7H36.62A1.93,1.93,0,0,1,38,2.05a2,2,0,0,1,.58,1.42,1.83,1.83,0,0,1-.94,1.69Z"/></g></g></svg>