<svg xmlns="http://www.w3.org/2000/svg" viewBox="0 0 32.54 40"><defs><style>.cls-1,.cls-2{fill:#010101;}.cls-1{opacity:0.3;}</style></defs><g id="Layer_2" data-name="Layer 2"><g id="Layer_1-2" data-name="Layer 1"><path class="cls-1" d="M30.53,13.78A12.4,12.4,0,0,0,21.3,7.59a6.64,6.64,0,0,1,2.9-2.81.69.69,0,0,0-.49-1.3c-2,.76-4,3.26-4.95,6.29-.8,2.63-.62,5,.54,6.64C21.57,19.54,21.08,22,21,22.12a.65.65,0,0,0,.54.8h.13a.66.66,0,0,0,.67-.53c.05-.13.67-3.17-2-6.82-.9-1.25-1-3.21-.36-5.44a12.63,12.63,0,0,1,.49-1.29,10.77,10.77,0,0,1,8.69,5.57c2.77,4.64,2.41,13.37-.84,20a7.65,7.65,0,0,1-8.74,4.06c-4.15-1.07-8.12-3.74-11.82-8-4.55-5-4.86-12.62-2.32-16.32a5,5,0,0,1,2.37-2,8.73,8.73,0,0,0,.71,1.87.69.69,0,1,0,1.2-.67c-.13-.22-3-5.7,2.55-8.74a.68.68,0,0,0,.35-.49A3.36,3.36,0,0,0,11.45.94a.7.7,0,0,0-.85,1.12,1.88,1.88,0,0,1,.72,1.51A7.37,7.37,0,0,0,7.84,7.68,7.27,7.27,0,0,0,.3,7.81.7.7,0,0,0,1.1,9a6,6,0,0,1,6.47.13,10,10,0,0,0,0,1.07c0,.23,0,.4,0,.63a6.28,6.28,0,0,0-2.72,1.91,5.3,5.3,0,0,0-4.24-.62.68.68,0,0,0,.27,1.34,3.92,3.92,0,0,1,3.17.4C1.51,18.2,1.91,26,6.77,31.35c3.92,4.41,8.11,7.22,12.48,8.38a9.45,9.45,0,0,0,2.23.27,9,9,0,0,0,8.07-5c3.61-6.86,4-16.18,1-21.18Z"/><path class="cls-2" d="M13.63,3.71a.83.83,0,0,0,.18.62.68.68,0,0,0,.63.18,3.35,3.35,0,0,1,1.16,0,19.58,19.58,0,0,0-1.39,4.86c-.53,3.25-2.58,4.1-2.67,4.14a.69.69,0,0,0,.27,1.34.32.32,0,0,0,.22-.05c.13,0,2.9-1.11,3.57-5.21.58-3.44,1.38-6.42,5.26-8.21a.73.73,0,0,0,.35-.93.73.73,0,0,0-.93-.36,9.29,9.29,0,0,0-3.93,3.17A2.67,2.67,0,0,0,15,3,4.8,4.8,0,0,0,13.9.27a.71.71,0,0,0-1-.13.66.66,0,0,0-.09,1,3.45,3.45,0,0,1,.8,2.59Z"/><path class="cls-2" d="M7.88,19.71a.7.7,0,0,0-.8.54C7,20.52,5.79,27,13,32.2a.68.68,0,0,0,.4.13.73.73,0,0,0,.58-.27.71.71,0,0,0-.14-1C7.35,26.4,8.37,20.78,8.42,20.52a.75.75,0,0,0-.54-.81Z"/></g></g></svg>