<svg xmlns="http://www.w3.org/2000/svg" viewBox="0 0 34.42 40"><defs><style>.cls-1{fill:#010101;}</style></defs><g id="Layer_2" data-name="Layer 2"><g id="Layer_1-2" data-name="Layer 1"><path class="cls-1" d="M17.78,28.13h-.14a3.3,3.3,0,0,1-2-.71.73.73,0,0,0-.8,0,3.54,3.54,0,0,1-4-.14.77.77,0,0,0-.8,0,3.32,3.32,0,0,1-1.91.58,3.47,3.47,0,0,1,0-6.94,4.79,4.79,0,0,0,3.33-.35,4.87,4.87,0,0,0,4.31,0,4.89,4.89,0,0,0,4.32,0,4.87,4.87,0,0,0,4.31,0,4.67,4.67,0,0,0,2.17.53.71.71,0,1,0,0-1.42,3.51,3.51,0,0,1-1.82-.53.65.65,0,0,0-.71,0,3.52,3.52,0,0,1-3.6,0,.65.65,0,0,0-.71,0,3.52,3.52,0,0,1-3.6,0,.65.65,0,0,0-.71,0,3.52,3.52,0,0,1-3.6,0,.65.65,0,0,0-.71,0,3.52,3.52,0,0,1-3.6,0,.65.65,0,0,0-.71,0,3.32,3.32,0,0,1-1.83.53,3.47,3.47,0,0,1,0-6.93,3.43,3.43,0,0,1,1.83.53.7.7,0,0,0,.71,0,3.33,3.33,0,0,1,2.89-.31,4.81,4.81,0,0,0,2.35.67A4.54,4.54,0,0,0,15,13a4.94,4.94,0,0,0,4.84.18,4.79,4.79,0,0,0,2.58.71.7.7,0,0,0,.71-.71.71.71,0,0,0-.71-.72,3.47,3.47,0,0,1-2.09-.71.77.77,0,0,0-.8,0,3.56,3.56,0,0,1-4-.13.75.75,0,0,0-.8-.05,3.35,3.35,0,0,1-1.91.58,3.47,3.47,0,1,1,2.09-6.22.73.73,0,0,0,.71.09.77.77,0,0,0,.4-.63V.71A.71.71,0,0,0,15.24,0a.7.7,0,0,0-.71.71V4.22a5.12,5.12,0,0,0-1.82-.35A4.84,4.84,0,0,0,7.87,8.71a5.21,5.21,0,0,0,.8,2.71A5.33,5.33,0,0,0,7,11.87a4.57,4.57,0,0,0-2.18-.54A4.83,4.83,0,0,0,4.53,21,4.79,4.79,0,0,0,3.2,24.31,4.86,4.86,0,0,0,8,29.16a4.54,4.54,0,0,0,2.27-.58,5,5,0,0,0,4.85.18,4,4,0,0,0,.57.31A4,4,0,0,0,15,31.64v7.65a.71.71,0,0,0,1.42,0V31.64A2.57,2.57,0,0,1,17,29.78a1.13,1.13,0,0,1,.66-.31.78.78,0,0,0,.8-.67.81.81,0,0,0-.66-.67Z"/><path class="cls-1" d="M30.18,15.69a4.56,4.56,0,0,0-1.38,0A4.74,4.74,0,0,0,30,12.53,4.85,4.85,0,0,0,25.2,7.69,4.71,4.71,0,0,0,23,8.22a4.7,4.7,0,0,0-2.22-.49,13.52,13.52,0,0,0,.22-3V1A.71.71,0,0,0,19.6,1V4.67A8.28,8.28,0,0,1,19.2,8a5.45,5.45,0,0,0-.58.22A4.7,4.7,0,0,0,14,8.4a.65.65,0,0,0-.23.93.68.68,0,0,0,.94.23,3.47,3.47,0,0,1,3.6,0,.7.7,0,0,0,.71,0,3.47,3.47,0,0,1,3.6,0,.7.7,0,0,0,.71,0A3.19,3.19,0,0,1,25.11,9a3.47,3.47,0,0,1,0,6.94,3.43,3.43,0,0,1-1.82-.54.7.7,0,0,0-.71,0,3.47,3.47,0,0,1-3.6,0,.7.7,0,0,0-.71,0,3.47,3.47,0,0,1-3.6,0,.69.69,0,0,0-.71,0,3.47,3.47,0,0,1-3.6,0,.71.71,0,0,0-.72,0,3.47,3.47,0,0,1-3.6,0,.68.68,0,0,0-.71,1.16,4.88,4.88,0,0,0,4.67.18,4.94,4.94,0,0,0,4.31,0,4.94,4.94,0,0,0,4.31,0,4.94,4.94,0,0,0,4.31,0,4.74,4.74,0,0,0,2.18.53,4.39,4.39,0,0,0,1.11-.13h.05a3,3,0,0,0,1.95,0A3.42,3.42,0,0,1,29.87,17a3.48,3.48,0,0,1,3,3.07A3.62,3.62,0,0,1,32,22.76a3.57,3.57,0,0,1-4.4.62.71.71,0,0,0-.72,0,3.47,3.47,0,0,1-3.6,0,.69.69,0,0,0-.71,0,3.47,3.47,0,0,1-3.6,0,.7.7,0,0,0-.71,0,3.47,3.47,0,0,1-3.6,0,.7.7,0,0,0-.71,0,3.47,3.47,0,0,1-3.6,0,.7.7,0,0,0-.71,0,3.29,3.29,0,0,1-1.82.53.7.7,0,0,0-.71.71.81.81,0,0,0,.8.71,4.62,4.62,0,0,0,2.18-.53,4.87,4.87,0,0,0,4.31,0,4.87,4.87,0,0,0,4.31,0,4.87,4.87,0,0,0,4.31,0,5.31,5.31,0,0,0,1.47.44,3.5,3.5,0,0,1,2.17,3.2,3.46,3.46,0,0,1-3.46,3.47H20.62a.7.7,0,0,0-.71.71v3.2a.71.71,0,1,0,1.42,0V33.33H23.2A4.84,4.84,0,0,0,28,28.49a5,5,0,0,0-1.37-3.38,4.12,4.12,0,0,0,.71-.27,4.57,4.57,0,0,0,2.18.54A4.88,4.88,0,0,0,34.4,20a5,5,0,0,0-4.22-4.31Z"/></g></g></svg>