<svg xmlns="http://www.w3.org/2000/svg" viewBox="0 0 39.5 44.08"><defs><style>.cls-1{fill:#010101;}</style></defs><g id="Layer_2" data-name="Layer 2"><g id="Layer_1-2" data-name="Layer 1"><path class="cls-1" d="M24.39.18c-4.5-.66-8.68.51-11.19,3.15A8.4,8.4,0,0,0,11.13,11c1.09,5.46,1.4,7.11,1.67,8.85a.85.85,0,0,0,1,.72.87.87,0,0,0,.73-.95v0c-.27-1.77-.58-3.43-1.68-8.93A6.78,6.78,0,0,1,14.5,4.49c2.11-2.21,5.71-3.18,9.64-2.6,8.41,1.25,13.64,8.5,13.64,18.93,0,10.66-4.57,18.93-11.64,21.08a8.25,8.25,0,0,1-7.5-1c-2.33-1.73-3.6-4.83-3.59-8.71,0-.13,0-.25,0-.4v-.22c0-.8,0-1.69-.05-4.07a.86.86,0,0,0-.87-.83h0a.86.86,0,0,0-.84.89c.08,2.33.08,3.19.05,4v.21c0,.17,0,.3,0,.46,0,4.44,1.51,8,4.3,10.1a9.9,9.9,0,0,0,9,1.26c7.81-2.38,12.86-11.3,12.86-22.73C39.5,9.65,33.57,1.55,24.39.18Z"/><path class="cls-1" d="M18.81,26.65a13.07,13.07,0,0,0-2.61-.27,33.23,33.23,0,0,0-7.49,1.28,30.84,30.84,0,0,1-7.85,1.2.86.86,0,1,0,0,1.72,32.06,32.06,0,0,0,8.25-1.25c5-1.21,6.86-1.49,9.36-1A.87.87,0,0,0,19.36,27,.91.91,0,0,0,18.81,26.65Z"/><path class="cls-1" d="M.86,23.91c5.7,0,11.47-1.92,17.15-5.7a.83.83,0,0,0,.36-.55.81.81,0,0,0-.13-.64.86.86,0,0,0-.54-.37l-.17,0a.83.83,0,0,0-.48.15C11.66,20.37,6.22,22.19.86,22.19a.86.86,0,1,0,0,1.72Z"/></g></g></svg>