<svg xmlns="http://www.w3.org/2000/svg" viewBox="0 0 41.42 40"><defs><style>.cls-1{fill:#010101;}</style></defs><g id="Layer_2" data-name="Layer 2"><g id="Layer_1-2" data-name="Layer 1"><path class="cls-1" d="M40.73,16.16C38.43,7.51,33,7,29.78,6.64a7.51,7.51,0,0,1-1.93-.32C24.85,4.8,25.08.79,25.08.75A.59.59,0,0,0,24.85.2.67.67,0,0,0,24.26,0L18.73.66a.66.66,0,0,0-.59.59c0,.14-.46,2.86.41,4.61A11,11,0,0,0,19.7,7.47c2,2.57,5.48,6.85,3.31,14.91a5.37,5.37,0,0,1-3.13,3.08,12.39,12.39,0,0,1-10.12-.37,5.18,5.18,0,0,0-5,.18C2.17,26.66.42,29.92,0,34a.7.7,0,0,0,.5.78l5.2,1.38a.65.65,0,0,0,.6-.14.67.67,0,0,0,.28-.55,22,22,0,0,1,.32-3A1.38,1.38,0,0,1,8.15,31.4a2.61,2.61,0,0,1,2.67,1.28c3.31,6.26,6.53,7,14.26,7.32a16.63,16.63,0,0,0,12.61-7,20.05,20.05,0,0,0,3-16.85Zm-4.14,16a15.11,15.11,0,0,1-11.46,6.39c-7.36-.32-10-.92-13-6.58a4,4,0,0,0-3.49-2.07A2.68,2.68,0,0,0,8,30a2.78,2.78,0,0,0-2.39,2.25c-.18,1-.28,1.8-.32,2.35l-3.78-1c.46-3.32,1.94-5.94,4-7a3.75,3.75,0,0,1,3.68-.14,13.92,13.92,0,0,0,11.32.41,6.74,6.74,0,0,0,3.91-4C26.74,14,22.88,9.17,20.8,6.59a8.6,8.6,0,0,1-1-1.38A7.13,7.13,0,0,1,19.42,2l4.24-.51c.09,1.52.6,4.65,3.54,6.12a8.65,8.65,0,0,0,2.39.47c3.22.32,7.69.78,9.71,8.46a18.6,18.6,0,0,1-2.71,15.65Z"/><path class="cls-1" d="M33.92,19.84a13.13,13.13,0,0,1-1.84.47,11.68,11.68,0,0,0-3,1,3.66,3.66,0,0,0-1.47,1.29c-4.46,7.09-7.73,7-8.93,6.63a2.23,2.23,0,0,0-2.25,3.63,9.17,9.17,0,0,0,6.85,2.49,17.13,17.13,0,0,0,7.09-1.57c6.58-3.63,6.3-11.46,6.26-11.78L35.9,22l.73-.09A2,2,0,0,0,36,20.07a1.94,1.94,0,0,0-2.12-.23Zm1.24,1.85v.23c0,.09.28,7.27-5.52,10.44-4,1.84-9.76,2.12-12.24-.6a.7.7,0,0,1-.18-.6.79.79,0,0,1,.27-.55,1,1,0,0,1,.51-.18.3.3,0,0,1,.18,0c1.89.56,5.75.37,10.54-7.22a1.76,1.76,0,0,1,.87-.74,10,10,0,0,1,2.77-.83,15.4,15.4,0,0,0,2-.5c.6-.19.79-.09.79-.09s.09.14,0,.6Z"/></g></g></svg>