<svg width="50" height="72" viewBox="0 0 50 72" fill="none" xmlns="http://www.w3.org/2000/svg">
<path d="M41.1594 44.4194H41.2347H41.5304L41.7025 44.6614L41.8101 44.8227L42.0951 45.2314L46.8542 42.0587L50 39.9615C49.9624 39.8969 49.9301 39.8324 49.8924 39.7732L48.8653 38.0793C47.8759 36.4661 46.8488 34.7507 45.8163 33.0998C45.4637 32.5484 45.0487 32.0395 44.5795 31.5833C43.6416 30.6561 42.5247 29.9296 41.297 29.4479C40.0693 28.9663 38.7563 28.7396 37.4382 28.7816H32.1736C30.8561 28.7816 30.2323 28.1525 30.2162 26.8188C30.2162 26.6575 30.2162 26.4962 30.2162 26.3349C30.1787 25.8229 30.1787 25.3089 30.2162 24.7969C30.2656 24.1206 30.4273 23.4573 30.6948 22.8341C31.4853 21.2209 32.308 19.5377 33.1146 17.9406C33.604 16.9511 34.0987 15.9671 34.5881 14.9776C34.7068 14.7528 34.7765 14.5053 34.7924 14.2516C34.7924 12.9503 34.7924 11.622 34.7924 10.3422V9.94425C34.8051 8.50736 34.5036 7.08506 33.9088 5.77699C33.314 4.46891 32.4404 3.3067 31.3492 2.37176C30.258 1.43682 28.9756 0.751757 27.5918 0.36457C26.208 -0.0226175 24.7563 -0.10257 23.3384 0.130314C19.1224 0.840144 15.6539 4.46996 15.2721 8.56761C15.1149 10.6322 15.0754 12.7041 15.1538 14.7732C15.1865 15.425 15.3706 16.0603 15.6915 16.6285C16.4659 18.0643 17.3048 19.5054 18.0953 20.8982L19.4074 23.189C19.5954 23.5183 19.7058 23.8861 19.73 24.2645C19.7677 25.0819 19.7677 25.8778 19.7623 26.792C19.7623 28.2062 19.1493 28.8139 17.7242 28.8193H14.3579H12.5296C8.55023 28.8838 5.68402 30.4971 3.76425 33.7558C3.04904 34.9765 2.30157 36.1918 1.57561 37.3749C1.22607 37.9126 0.88191 38.4988 0.53775 39.0634C0.354915 39.3592 0.177458 39.6549 0 39.9668V39.9937L7.88342 45.2475L7.99635 45.1131L8.48032 44.5054L9.43751 43.2955V67.747C9.43751 67.9836 9.43752 69.2312 9.48054 69.9572V70.4949V71.7263H40.5302V69.9572C40.5302 69.2258 40.5679 67.9782 40.5679 67.7416V44.4463H41.1056L41.1594 44.4194ZM25.6345 22.49V19.6721H27.8393V18.4138H25.6399V1.23808L26.253 1.32412C27.8704 1.53414 29.3867 2.22763 30.6034 3.31379C31.5518 4.12835 32.3104 5.14063 32.826 6.27956C33.3416 7.4185 33.6016 8.65648 33.5879 9.90661C33.5879 11.1488 33.5879 12.4287 33.5879 13.7031C33.5819 14.0762 33.4938 14.4435 33.3298 14.7786C32.6916 16.0728 32.0463 17.3688 31.3938 18.6666C30.7987 19.8675 30.2036 21.0667 29.6085 22.2641C29.5157 22.4999 29.3533 22.7018 29.1429 22.843C28.9326 22.9842 28.6842 23.058 28.4308 23.0546H28.334C28.0867 23.0546 27.7963 23.0546 27.4844 23.0546H25.6345V22.49ZM25.5969 40.9993V40.5207L26.0755 40.4616C26.3014 40.4616 26.4949 40.4239 26.6724 40.4239C27.1051 40.3988 27.5349 40.5091 27.902 40.7394C28.2692 40.9697 28.5555 41.3087 28.7212 41.7091L28.9632 42.1609C29.2767 42.7126 29.5586 43.2818 29.8075 43.8655C30.0241 44.4022 30.1054 44.9839 30.0441 45.5594C29.9822 46.0131 29.7557 46.4281 29.4076 46.7256C29.0596 47.023 28.6143 47.1822 28.1566 47.1727C27.8934 47.173 27.6326 47.1237 27.3876 47.0275C26.8412 46.8614 26.367 46.5155 26.042 46.0459C25.7169 45.5764 25.5601 45.0108 25.5969 44.4409V40.9993ZM27.9845 58.6375C28.0224 58.6799 28.0688 58.7137 28.1207 58.7369C28.1726 58.7601 28.2288 58.772 28.2857 58.7719C28.7057 58.7907 29.1164 58.9022 29.4882 59.0983C29.8601 59.2945 30.184 59.5705 30.4367 59.9066C30.7746 60.2733 31.1337 60.6198 31.5122 60.9445C31.6291 61.0542 31.7821 61.1173 31.9424 61.1219C32.0209 61.1227 32.0987 61.1063 32.1703 61.0737C32.2418 61.0412 32.3053 60.9934 32.3564 60.9337C32.4635 60.8225 32.5234 60.6741 32.5234 60.5196C32.5234 60.3652 32.4635 60.2168 32.3564 60.1056C32.2007 59.9181 32.0356 59.7386 31.8617 59.5678L31.5821 59.2721L31.0873 58.7343L31.738 58.4224L32.7006 57.9546L33.8944 57.3792L34.5128 57.0834L34.6526 57.7556C35.1904 60.1916 33.5771 63.7515 31.3562 65.0798L30.9314 65.3325L30.641 64.9346L30.2861 64.4237C30.028 64.058 29.7483 63.6816 29.4848 63.3482C29.2344 63.0143 28.9096 62.7432 28.5363 62.5566C28.1629 62.3699 27.7512 62.2727 27.3338 62.2727C26.7961 62.2727 26.1831 62.2727 25.5485 62.2727C25.0108 62.2727 24.4999 62.2727 23.9783 62.2727C23.8947 62.2622 23.81 62.2687 23.7289 62.2916C23.6479 62.3145 23.5723 62.3534 23.5067 62.4061C23.441 62.4587 23.3865 62.524 23.3465 62.5981C23.3065 62.6722 23.2818 62.7535 23.2738 62.8373C23.2668 62.9123 23.2757 62.9879 23.2998 63.0592C23.3239 63.1305 23.3626 63.196 23.4136 63.2514C23.4836 63.3232 23.5672 63.3801 23.6596 63.4189C23.752 63.4577 23.8512 63.4776 23.9514 63.4773C24.2525 63.4773 24.5806 63.4773 24.9839 63.4773H26.3336C28.1942 63.4773 28.7158 63.8376 29.4741 65.6283L29.7053 66.166L29.1676 66.3542C27.8351 66.7407 26.4516 66.9221 25.0645 66.892C23.6341 66.892 20.1011 66.6876 18.3319 64.8163L17.8426 64.2785L18.4663 63.9505L18.789 63.7784C19.0095 63.6655 19.2246 63.5525 19.4343 63.4289C19.644 63.3052 20.0312 62.9771 19.8215 62.5577C19.7791 62.4607 19.7091 62.3783 19.6201 62.3209C19.5312 62.2635 19.4272 62.2336 19.3214 62.2351C19.1765 62.2387 19.0338 62.2716 18.9019 62.3318C18.5524 62.4878 18.2028 62.6653 17.8264 62.8696L17.2887 63.1277L16.8585 63.3374L16.6003 62.9395C15.1592 60.7186 15.213 58.3417 15.2721 56.0402C15.3151 55.0488 15.2989 54.0558 15.2237 53.0664L15.143 52.1899L15.9604 52.5179L16.31 52.6577L17.6597 53.1955L18.2728 53.4375L17.9125 53.9752C17.8694 54.0397 17.8318 54.1043 17.7888 54.1581C17.7458 54.2118 17.6543 54.3624 17.6006 54.4646C17.5248 54.5722 17.4911 54.704 17.506 54.8348C17.5209 54.9656 17.5832 55.0865 17.6812 55.1744C17.729 55.235 17.7893 55.2847 17.8579 55.3199C17.9266 55.3552 18.0021 55.3752 18.0792 55.3787C18.2066 55.3712 18.3295 55.3284 18.4341 55.2551L18.5147 55.212C18.7452 54.8577 19.0661 54.5712 19.4442 54.3822C19.8223 54.1931 20.244 54.1083 20.6657 54.1365C20.9627 54.1408 21.2591 54.1641 21.553 54.2064C21.8169 54.2412 22.0828 54.2573 22.3489 54.2548H23.0372C23.2738 54.2548 23.5104 54.2548 23.747 54.2548H24.188L24.274 54.6904C24.4945 55.8143 24.4085 56.5672 24.0052 57.0619C23.8017 57.2813 23.5501 57.4503 23.2701 57.5558C22.9902 57.6613 22.6895 57.7002 22.3919 57.6696H22.0854C21.9671 57.6696 21.8434 57.6696 21.7251 57.6696C21.214 57.6303 20.7007 57.7066 20.2231 57.8928C19.7456 58.0789 19.3161 58.3702 18.9664 58.7451C18.7029 59.0354 18.461 59.4603 18.8051 59.7883C18.8561 59.8463 18.919 59.8927 18.9895 59.9243C19.0601 59.9558 19.1366 59.9718 19.2138 59.9711C19.319 59.9665 19.4218 59.9385 19.5148 59.8892C19.6078 59.8399 19.6887 59.7705 19.7516 59.6861C20.0324 59.3812 20.38 59.1454 20.7672 58.997C21.1543 58.8487 21.5705 58.7919 21.9832 58.8311H22.3758C23.8438 58.8311 24.8172 58.2449 25.3442 57.0458C25.4631 56.7246 25.5443 56.3908 25.5861 56.0509C25.613 55.895 25.6399 55.739 25.6722 55.5831C25.7089 55.2287 25.8742 54.9001 26.1368 54.6594C26.3994 54.4186 26.741 54.2823 27.0972 54.2764H27.1725H27.5758C29.6515 54.2764 31.5982 53.5074 33.4212 52.7169C33.5561 52.6615 33.6944 52.6148 33.8352 52.5771L34.0396 52.5233L34.7333 52.3082V53.0342C34.7333 53.217 34.7333 53.3891 34.7333 53.5719C34.7333 54.0236 34.7333 54.4538 34.7064 54.8894C34.6729 55.0897 34.5939 55.2797 34.4755 55.4447C34.3571 55.6097 34.2025 55.7453 34.0234 55.8412H33.9966C32.3833 56.7124 30.7055 57.6158 28.6997 57.6158H28.3609H28.3287C28.1861 57.6158 28.0493 57.6724 27.9484 57.7733C27.8476 57.8741 27.7909 58.0109 27.7909 58.1535C27.7905 58.2389 27.8075 58.3234 27.8407 58.402C27.874 58.4806 27.9229 58.5515 27.9845 58.6106V58.6375ZM24.5698 53.0019L25.3442 52.0985L26.4197 50.867L27.8716 49.1839L28.2319 48.759L28.6406 49.1355C29.8774 50.2701 30.8561 50.7487 32.0176 50.7487L33.7761 50.7864L32.2811 51.7543C30.5227 52.889 28.6621 52.9858 26.9036 52.9858H25.7582L24.5698 53.0019ZM26.538 39.1602H26.2691H26.1508L25.6561 39.1226V34.8098H26.1938C27.3065 34.7965 28.4108 35.004 29.4427 35.4203C30.4747 35.8366 31.4138 36.4534 32.2058 37.2351C33.0012 37.9918 33.6336 38.903 34.0645 39.9127C34.4954 40.9224 34.7157 42.0095 34.7118 43.1073C34.7118 44.4463 34.7118 45.753 34.7118 47.1404V49.5442L34.1418 49.5119C34.0181 49.5119 33.889 49.5119 33.7653 49.5119H33.1738C32.9695 49.5119 32.7651 49.5119 32.5608 49.5119C31.6292 49.5733 30.711 49.264 30.0065 48.6515L29.6623 48.3342L29.9258 47.947L29.9581 47.8986C30.0089 47.8094 30.0723 47.7279 30.1463 47.6567C30.7596 47.1206 31.1705 46.3904 31.3105 45.5879C31.4504 44.7854 31.3109 43.9592 30.9153 43.2471C30.7862 42.989 30.6518 42.7094 30.5173 42.4781C30.3076 42.0802 30.0979 41.6715 29.8989 41.2574C29.6338 40.5959 29.1693 40.0334 28.5699 39.6479C27.9705 39.2624 27.266 39.0732 26.5541 39.1064M25.4194 47.5599L26.3014 48.388L26.6563 48.7214L26.3551 49.1086C25.2721 50.431 23.8307 51.413 22.2037 51.9371L21.8219 52.0554C21.5834 52.1215 21.3498 52.2041 21.1228 52.3028C20.7603 52.4838 20.3611 52.5795 19.9559 52.5824C19.475 52.5753 19.0035 52.4478 18.5846 52.2114C18.4878 52.1576 18.3695 52.1092 18.2512 52.0554C18.0674 51.9753 17.8879 51.8856 17.7135 51.7866L16.4014 51.0176L17.9017 50.7917C19.1788 50.5934 20.3253 49.8973 21.0906 48.8558C21.5584 48.2589 22.0478 47.6782 22.521 47.1189L23.0587 46.4575C23.1663 46.3284 23.2846 46.1994 23.3975 46.0703L23.5481 45.9036L23.9729 46.2746L24.0052 46.2424L25.4194 47.5599ZM24.3439 39.9507C24.4861 40.9724 24.374 42.0135 24.0176 42.9815C23.6611 43.9496 23.0713 44.8147 22.3005 45.5003C21.5388 46.2534 20.8493 47.0762 20.2409 47.9578C19.9115 48.4461 19.4669 48.8458 18.9464 49.1215C18.4259 49.3973 17.8454 49.5406 17.2564 49.5388H16.8585C16.742 49.5329 16.6254 49.5329 16.5089 49.5388H16.1809H15.7722H15.2345V49.001C15.2345 48.4256 15.2345 47.861 15.2345 47.3017C15.2345 45.9359 15.2076 44.6453 15.2667 43.3224C15.3102 42.2414 15.5113 41.1726 15.8636 40.1497C16.4518 38.6259 17.4783 37.3107 18.8134 36.3699C20.1485 35.429 21.7325 34.9049 23.3652 34.8636C23.5212 34.8636 23.6718 34.8636 23.8277 34.8636L24.3278 34.8958V35.396C24.3278 35.8907 24.3278 36.38 24.3009 36.8586C24.2475 37.8892 24.2619 38.9221 24.3439 39.9507ZM21.5692 24.3291H24.3117V32.4975L23.3222 30.9649C22.1881 29.1235 21.4143 27.0833 21.0422 24.9529L20.9077 24.3076L21.5692 24.3291ZM21.0045 23.0116V19.7044H24.3063V22.9901H21.0045V23.0116ZM19.6978 16.7468V19.4355L19.2353 19.5001H19.1654H19.1224L18.7621 19.5538L18.5793 19.2312L17.3102 16.9834L16.8585 16.1821H19.6978V16.7468ZM19.2461 14.9668C18.9664 14.9668 18.7083 14.9668 18.4126 14.9668H16.396V14.4291C16.396 13.7569 16.396 13.0686 16.3637 12.3964C16.2885 10.0142 16.2132 7.55664 17.6812 5.26583C18.3375 4.21501 19.213 3.31833 20.2479 2.63711C21.2827 1.95588 22.4525 1.50617 23.6771 1.31874L24.3439 1.20581V18.3547H20.983V17.8169C20.983 17.6771 20.983 17.5427 20.983 17.4082C20.9966 17.1503 20.9966 16.8918 20.983 16.6339C20.9717 16.1831 20.7829 15.7551 20.4576 15.4429C20.1323 15.1307 19.6969 14.9596 19.2461 14.9668ZM18.3749 30.1421L19.1331 29.755L20.2678 29.1688L20.7464 28.9268L20.9938 29.3947L21.9026 31.137L22.806 32.847L23.1286 33.4601L22.4511 33.6214L22.0424 33.7236C21.6429 33.8358 21.2371 33.9237 20.8271 33.987H20.7249C20.538 33.9728 20.3565 33.9172 20.1938 33.8242C20.031 33.7312 19.891 33.6031 19.7838 33.4493C19.3644 32.8201 18.9611 32.1748 18.5685 31.5457L18.1652 30.9111L17.8533 30.411L18.3749 30.1421ZM11.7982 34.3689V30.0669H16.0465L15.7991 30.7821C15.2022 32.519 13.9869 33.6268 12.6963 34.7937L11.7982 35.6111V34.3689ZM11.1207 40.3648C12.0582 37.3386 14.0527 34.7505 16.7402 33.0729C16.8551 33.0056 16.9736 32.9446 17.0951 32.89C17.1594 32.8629 17.2222 32.8324 17.2833 32.7986L17.7081 32.5889L17.9716 32.9815L18.2996 33.4708L18.7137 34.0946L18.9611 34.4656L18.6438 34.7775C18.348 35.0679 18.0523 35.3153 17.7565 35.6164C17.1393 36.1598 16.5607 36.7456 16.025 37.3695C14.6316 39.1198 13.9139 41.3128 14.003 43.5482C14.003 44.4033 14.003 45.2583 14.003 46.1778C14.003 46.6134 14.003 47.0705 14.003 47.5437V49.0656L13.0512 47.8825L12.7393 47.4953C12.5726 47.2856 12.4435 47.1189 12.3091 46.9576C10.6636 45.1884 10.2764 43.0266 11.1207 40.3648ZM10.6582 48.5278L10.8034 47.4523L11.567 48.189C11.7821 48.3988 12.0187 48.6031 12.2392 48.8021C12.8196 49.2709 13.3366 49.8132 13.7772 50.4153C14.0319 50.9121 14.1223 51.477 14.0353 52.0286C14.0249 52.2202 14.0249 52.4123 14.0353 52.604L14.0622 53.0772L13.5997 53.1632L13.3954 53.2009L13.1319 53.2546L12.9329 53.0718C11.723 52.0178 10.3624 50.7702 10.6582 48.5278ZM14.0084 56.8468C14.0084 56.9866 14.0084 57.1264 14.0084 57.2716V58.0944L13.2555 57.761C11.9434 57.1856 10.6206 55.2658 10.6851 53.9967L10.7335 53.061L11.5186 53.5719C11.6961 53.6956 11.8789 53.8085 12.0564 53.9214C12.5457 54.2387 13.0082 54.5399 13.4653 54.8625C13.6102 54.9589 13.7331 55.085 13.8258 55.2323C13.9185 55.3797 13.9789 55.5451 14.003 55.7175C14.025 56.099 14.0267 56.4813 14.0084 56.8629V56.8468ZM2.71564 38.6601L2.63498 38.5472L2.4145 38.2568L2.60272 37.9503L5.46892 33.245L5.66251 32.9169L6.03356 32.9976H6.11422H6.21101L6.63584 33.0836V37.9234L6.24328 38.0309L4.91503 38.3966L3.30178 38.8376L2.94688 38.9344L2.7264 38.6386L2.71564 38.6601ZM10.2441 38.7623C10.1151 40.0475 9.22241 41.5962 7.73285 43.1288L7.42095 43.4461L7.0499 43.1987L3.8234 41.0477L2.9146 40.4616L3.95247 40.112L9.56119 38.2353L10.3463 37.9718L10.2441 38.7623ZM10.4915 35.6756C10.4628 35.8706 10.3871 36.0558 10.271 36.215C10.1548 36.3743 10.0016 36.5029 9.82469 36.5898C9.57118 36.7348 9.30898 36.8641 9.03958 36.9769L8.63089 37.1598L7.86729 37.5147V35.6756C7.86729 34.869 7.86729 34.1107 7.86729 33.3471C7.88262 33.0457 7.91855 32.7456 7.97483 32.4491C7.97483 32.3684 7.97483 32.2878 8.01785 32.2071C8.23833 30.809 8.47495 30.6638 9.87847 30.3949L10.5184 30.2712V31.9651C10.5345 33.1858 10.5345 34.4495 10.513 35.6917L10.4915 35.6756ZM40.5033 39.1602H39.3095V67.6609C39.3095 67.9352 39.3095 69.812 39.2719 70.3497V70.8875H10.6636V70.3497C10.6636 69.812 10.6636 68.7365 10.6636 67.7577C10.6636 66.978 10.6636 66.252 10.6636 65.8702C10.656 65.7323 10.656 65.5941 10.6636 65.4562C10.6636 65.3863 10.6636 65.311 10.6636 65.2249L10.7335 63.8698L11.61 64.9023L12.7662 66.2574L13.7073 67.3329L13.9062 67.1286L14.5569 66.451C12.487 64.3881 11.1546 61.7006 10.7658 58.8042L10.6152 57.6857L11.5831 58.2718L12.1908 58.6429C12.7285 58.9817 13.2663 59.3043 13.804 59.6539C14.0611 59.8691 14.2296 60.1717 14.2773 60.5035C14.7023 62.365 15.6683 64.0592 17.0538 65.3729C18.4393 66.6867 20.1825 67.5613 22.0639 67.8868C22.1977 67.9109 22.329 67.9469 22.4564 67.9944H22.4995H27.3392L28.1136 67.8061C28.6804 67.6932 29.2364 67.5312 29.7752 67.3222C33.7438 65.6283 35.8088 62.6975 35.9056 58.616C36.0293 53.5074 36.0239 48.2858 35.9056 42.6556C35.798 37.8696 31.7219 33.7935 26.823 33.573H26.3982H26.1669L25.6614 33.5407V24.3291H28.9901V25.4046C28.9901 25.8294 28.9901 26.2488 28.9901 26.6737C28.9901 28.8247 30.1194 29.9593 32.3026 29.9754H35.142C36.1529 29.9754 37.3521 29.9754 38.5405 30.0722C39.8483 30.1473 41.1168 30.5463 42.232 31.2334C43.3472 31.9206 44.274 32.8742 44.929 34.0086C45.6496 35.1701 46.3541 36.3316 47.08 37.5254L48.0749 39.1387L48.3383 39.5797L47.9135 39.8647L44.8968 41.8758L42.9125 43.1987L42.493 43.4783L42.1865 43.0804L42.052 42.9029C41.2669 41.8705 40.385 40.7197 40.5248 39.1763L40.5033 39.1602Z" fill="#231F20"/>
</svg>
