<svg width="50" height="72" viewBox="0 0 50 72" fill="none" xmlns="http://www.w3.org/2000/svg">
<path d="M25.1424 1.06066C26.2831 1.01908 27.4188 1.23222 28.4664 1.68451C29.5139 2.13681 30.4468 2.81681 31.197 3.67482C33.3459 6.14969 34.3344 10.3173 33.7488 14.5439C33.507 16.1831 32.5508 17.6777 31.5354 19.2633C30.5359 20.6657 29.7569 22.212 29.2253 23.8488L29.1877 23.9934V24.1381C29.1877 24.3845 29.1877 24.6738 29.1877 25.0059C29.1179 26.3023 29.0373 27.92 30.0097 28.9378C30.2771 29.208 30.5984 29.4191 30.9529 29.5575C31.3073 29.6959 31.687 29.7586 32.0673 29.7414H32.3842C33.5446 29.6449 34.5707 29.5967 35.5216 29.5967C42.7528 29.5807 44.6546 32.5055 48.5495 39.4695L42.323 43.605L41.3882 42.4318L39.5079 40.0051V43.0639C39.5079 46.4602 39.5079 49.8779 39.5079 53.1884C39.5079 58.3417 39.5079 63.6611 39.4703 68.9751V69.5805C39.4703 69.7412 39.4703 70.0037 39.4703 70.3144H10.5673C10.5673 70.0037 10.5673 69.7358 10.5673 69.5805V69.2055C10.5082 63.8165 10.519 58.4167 10.5243 53.1884C10.5243 49.8779 10.5243 46.4602 10.5243 43.0639V40.0051L8.61717 42.3997L7.68238 43.5728L1.41828 39.4695C5.33469 32.5055 7.24723 29.586 14.4891 29.586C15.4454 29.586 16.4715 29.6342 17.6534 29.7414H17.9542C18.3345 29.7582 18.714 29.6954 19.0684 29.557C19.4228 29.4186 19.7442 29.2077 20.0118 28.9378C20.9788 27.92 20.8982 26.3023 20.8338 25.0059C20.8338 24.6845 20.8015 24.3845 20.8069 24.1381V23.9934L20.7693 23.8488C20.2378 22.212 19.4588 20.6657 18.4592 19.2633C17.4439 17.6563 16.4876 16.1831 16.2458 14.5439C15.6334 10.3763 16.6058 6.23005 18.7816 3.71767C19.4617 2.92259 20.2998 2.27688 21.243 1.82138C22.1863 1.36588 23.214 1.11049 24.2613 1.07138H25.0081H25.1424M24.8845 0C16.9657 0 14.2151 8.11567 15.1821 14.7207C15.6925 18.1705 18.8406 20.8436 19.7324 24.1488C19.7324 25.7987 20.3503 28.6914 17.9542 28.6914H17.7286C16.5467 28.5896 15.4776 28.5361 14.5052 28.5361C6.40915 28.5361 4.35156 32.0823 0 39.8284L7.87579 45.0674L9.42838 43.1175C9.45524 52.0313 9.36392 60.7416 9.47137 69.6769C9.47137 70.0251 9.47137 71.075 9.47137 71.4393H40.491C40.491 71.0697 40.491 70.0304 40.491 69.6769C40.5931 60.7416 40.491 51.9992 40.534 43.1175L42.0812 45.0674L49.957 39.8284C45.6001 32.0502 43.5586 28.5789 35.4518 28.5789C34.4687 28.5789 33.3996 28.6271 32.2284 28.7289H32.0028C29.6014 28.7289 30.2407 25.8362 30.2246 24.1863C31.1164 20.8811 34.2645 18.208 34.7695 14.7582C35.6989 8.10495 33.0396 0.048212 25.0994 0.048212H24.9543L24.8845 0Z" fill="#231F20"/>
</svg>
