<svg width="30" height="27" viewBox="0 0 30 27" fill="none" xmlns="http://www.w3.org/2000/svg">
<g opacity="0.2">
<mask id="path-1-inside-1_67_27" fill="white">
<path d="M26.7378 7.0166L26.5892 6.91667L26.8348 6.59433C26.922 6.48151 27.0028 6.37836 27.0803 6.27199C27.6469 5.44621 27.8798 4.43733 27.7325 3.44745C27.5851 2.45757 27.0683 1.55981 26.2855 0.934013C25.8503 0.579569 25.3476 0.316873 24.8077 0.161802C24.2678 0.00673004 23.7021 -0.0374967 23.1446 0.0318045C22.5871 0.101106 22.0495 0.282493 21.5643 0.564994C21.079 0.847495 20.6563 1.22524 20.3215 1.6754C19.9673 2.15164 19.7284 2.7033 19.6237 3.28711C19.6043 3.3967 19.5881 3.50952 19.572 3.60945L19.5461 3.77707V4.28314C19.5562 4.31221 19.5616 4.34266 19.5623 4.3734C19.5862 4.67856 19.6481 4.97958 19.7465 5.26951C20.0611 6.22793 20.7253 7.03332 21.6074 7.5259C22.4493 8.01023 23.4367 8.17937 24.3923 8.00297C25.0406 7.89197 25.6519 7.62414 26.1725 7.2229L26.2403 7.17777L26.3502 7.10363L26.4729 7.17777L26.5472 7.24546L27.1062 7.79667L29.0446 9.69848C29.0848 9.73342 29.1281 9.7647 29.1738 9.79196L29.2094 9.81453H29.2449L29.274 9.79519C29.3093 9.77747 29.3411 9.75343 29.3677 9.72427C29.3838 9.70171 29.4291 9.64046 29.2998 9.51475L26.7378 7.0166ZM25.9528 7.0166C25.3213 7.51296 24.5404 7.78214 23.7365 7.78055C23.5668 7.78095 23.3974 7.77018 23.2292 7.74831C22.5667 7.6835 21.9338 7.44228 21.3967 7.04988C20.8596 6.65748 20.4381 6.12831 20.1761 5.51771C19.9622 5.01452 19.8576 4.47181 19.8692 3.92534C19.8815 3.30465 20.0557 2.69786 20.3746 2.16482C20.6936 1.63178 21.1463 1.19091 21.6881 0.885663C22.2502 0.530933 22.8979 0.334375 23.5627 0.316785C24.2276 0.299195 24.8848 0.461228 25.4649 0.785738C26.0198 1.07605 26.4918 1.50211 26.8366 2.02402C27.1815 2.54593 27.388 3.14663 27.4367 3.76986C27.4855 4.39309 27.3749 5.01847 27.1153 5.58745C26.8558 6.15642 26.4558 6.65037 25.9528 7.02305V7.0166Z"/>
</mask>
<path d="M26.7378 7.0166L26.5892 6.91667L26.8348 6.59433C26.922 6.48151 27.0028 6.37836 27.0803 6.27199C27.6469 5.44621 27.8798 4.43733 27.7325 3.44745C27.5851 2.45757 27.0683 1.55981 26.2855 0.934013C25.8503 0.579569 25.3476 0.316873 24.8077 0.161802C24.2678 0.00673004 23.7021 -0.0374967 23.1446 0.0318045C22.5871 0.101106 22.0495 0.282493 21.5643 0.564994C21.079 0.847495 20.6563 1.22524 20.3215 1.6754C19.9673 2.15164 19.7284 2.7033 19.6237 3.28711C19.6043 3.3967 19.5881 3.50952 19.572 3.60945L19.5461 3.77707V4.28314C19.5562 4.31221 19.5616 4.34266 19.5623 4.3734C19.5862 4.67856 19.6481 4.97958 19.7465 5.26951C20.0611 6.22793 20.7253 7.03332 21.6074 7.5259C22.4493 8.01023 23.4367 8.17937 24.3923 8.00297C25.0406 7.89197 25.6519 7.62414 26.1725 7.2229L26.2403 7.17777L26.3502 7.10363L26.4729 7.17777L26.5472 7.24546L27.1062 7.79667L29.0446 9.69848C29.0848 9.73342 29.1281 9.7647 29.1738 9.79196L29.2094 9.81453H29.2449L29.274 9.79519C29.3093 9.77747 29.3411 9.75343 29.3677 9.72427C29.3838 9.70171 29.4291 9.64046 29.2998 9.51475L26.7378 7.0166ZM25.9528 7.0166C25.3213 7.51296 24.5404 7.78214 23.7365 7.78055C23.5668 7.78095 23.3974 7.77018 23.2292 7.74831C22.5667 7.6835 21.9338 7.44228 21.3967 7.04988C20.8596 6.65748 20.4381 6.12831 20.1761 5.51771C19.9622 5.01452 19.8576 4.47181 19.8692 3.92534C19.8815 3.30465 20.0557 2.69786 20.3746 2.16482C20.6936 1.63178 21.1463 1.19091 21.6881 0.885663C22.2502 0.530933 22.8979 0.334375 23.5627 0.316785C24.2276 0.299195 24.8848 0.461228 25.4649 0.785738C26.0198 1.07605 26.4918 1.50211 26.8366 2.02402C27.1815 2.54593 27.388 3.14663 27.4367 3.76986C27.4855 4.39309 27.3749 5.01847 27.1153 5.58745C26.8558 6.15642 26.4558 6.65037 25.9528 7.02305V7.0166Z" fill="black"/>
<path d="M26.7378 7.0166L33.7191 -0.143119L33.0701 -0.775973L32.3178 -1.2818L26.7378 7.0166ZM26.5892 6.91667L18.6343 0.857053L12.2062 9.29574L21.0092 15.2151L26.5892 6.91667ZM26.8348 6.59433L18.9237 0.477573L18.9017 0.506063L18.8798 0.534711L26.8348 6.59433ZM27.0803 6.27199L35.1613 12.1625L35.2453 12.0472L35.326 11.9296L27.0803 6.27199ZM26.2855 0.934013L19.9707 8.68789L20.0057 8.71638L20.0409 8.74456L26.2855 0.934013ZM20.3215 1.6754L28.345 7.64393L28.3461 7.64249L20.3215 1.6754ZM19.6237 3.28711L9.78077 1.52159L9.77864 1.5335L9.77653 1.54541L19.6237 3.28711ZM19.572 3.60945L9.70015 2.01359L9.69437 2.04936L9.68885 2.08518L19.572 3.60945ZM19.5461 3.77707L9.66299 2.2528L9.54614 3.01046V3.77707H19.5461ZM19.5461 4.28314H9.54614V5.96172L10.0942 7.5483L19.5461 4.28314ZM19.5623 4.3734L9.56463 4.58893L9.57073 4.872L9.59284 5.15428L19.5623 4.3734ZM19.7465 5.26951L29.2476 2.15045L29.232 2.10309L29.216 2.05588L19.7465 5.26951ZM21.6074 7.5259L26.5938 -1.14218L26.5386 -1.17392L26.4831 -1.20495L21.6074 7.5259ZM24.3923 8.00297L22.7049 -1.85363L22.6409 -1.84268L22.577 -1.83089L24.3923 8.00297ZM26.1725 7.2229L20.6341 -1.10334L20.3439 -0.910322L20.0679 -0.697577L26.1725 7.2229ZM26.2403 7.17777L31.7787 15.504L31.8067 15.4854L31.8345 15.4666L26.2403 7.17777ZM26.3502 7.10363L31.52 -1.45633L26.0514 -4.75913L20.7559 -1.1852L26.3502 7.10363ZM26.4729 7.17777L33.2069 -0.215022L32.482 -0.875285L31.6427 -1.38218L26.4729 7.17777ZM26.5472 7.24546L33.5689 0.125392L33.4278 -0.0138231L33.2812 -0.147333L26.5472 7.24546ZM27.1062 7.79667L20.0844 14.9167L20.0936 14.9258L20.1029 14.9349L27.1062 7.79667ZM29.0446 9.69848L22.0413 16.8367L22.2569 17.0482L22.4848 17.2463L29.0446 9.69848ZM29.1738 9.79196L34.5348 1.35039L34.4132 1.27319L34.2895 1.19952L29.1738 9.79196ZM29.2094 9.81453L23.8484 18.2561L26.3024 19.8145H29.2094V9.81453ZM29.2449 9.81453V19.8145H32.2669L34.7832 18.1409L29.2449 9.81453ZM29.274 9.79519L24.7892 0.857234L24.2438 1.1309L23.7357 1.46886L29.274 9.79519ZM29.3677 9.72427L36.753 16.4665L37.1532 16.0281L37.4988 15.5454L29.3677 9.72427ZM29.2998 9.51475L22.3185 16.6745L22.327 16.6827L29.2998 9.51475ZM25.9528 7.0166H35.9528V-13.5629L19.7731 -0.845429L25.9528 7.0166ZM23.7365 7.78055L23.7562 -2.21943L23.7345 -2.21947L23.7128 -2.21942L23.7365 7.78055ZM23.2292 7.74831L24.5186 -2.16821L24.3611 -2.1887L24.2029 -2.20417L23.2292 7.74831ZM20.1761 5.51771L10.9733 9.43011L10.9797 9.44515L10.9861 9.46017L20.1761 5.51771ZM19.8692 3.92534L29.867 4.13764L29.8671 4.13017L29.8673 4.1227L19.8692 3.92534ZM21.6881 0.885663L26.5965 9.59819L26.8141 9.47558L27.0254 9.34226L21.6881 0.885663ZM25.4649 0.785738L20.5829 9.51304L20.7051 9.5814L20.8291 9.64631L25.4649 0.785738ZM25.9528 7.02305H15.9528V26.8771L31.9057 15.0581L25.9528 7.02305ZM32.3178 -1.2818L32.1692 -1.38173L21.0092 15.2151L21.1578 15.315L32.3178 -1.2818ZM34.5442 12.9763L34.7897 12.654L18.8798 0.534711L18.6343 0.857053L34.5442 12.9763ZM34.7459 12.7111C34.7779 12.6697 34.977 12.4153 35.1613 12.1625L18.9993 0.381508C19.0262 0.344688 19.04 0.326969 19.0259 0.345434C19.0189 0.354456 19.0088 0.367577 18.9909 0.390748C18.9818 0.402524 18.973 0.413916 18.9612 0.429115C18.9502 0.443361 18.9372 0.460025 18.9237 0.477573L34.7459 12.7111ZM35.326 11.9296C37.321 9.02193 38.1432 5.46587 37.6234 1.97479L17.8415 4.92011C17.6165 3.40878 17.9727 1.87049 18.8346 0.614349L35.326 11.9296ZM37.6234 1.97479C37.1037 -1.51602 35.2819 -4.67652 32.5302 -6.87654L20.0409 8.74456C18.8547 7.79614 18.0665 6.43115 17.8415 4.92011L37.6234 1.97479ZM32.6004 -6.81986C31.1172 -8.02778 29.4053 -8.92195 27.5685 -9.44956L22.0469 9.77316C21.2899 9.5557 20.5834 9.18692 19.9707 8.68789L32.6004 -6.81986ZM27.5685 -9.44956C25.7317 -9.97715 23.8072 -10.1275 21.911 -9.89181L24.3782 9.95542C23.5969 10.0525 22.804 9.99061 22.0469 9.77316L27.5685 -9.44956ZM21.911 -9.89181C20.0147 -9.65609 18.1851 -9.03902 16.5328 -8.07703L26.5957 9.20702C25.9138 9.604 25.1595 9.8583 24.3782 9.95542L21.911 -9.89181ZM16.5328 -8.07703C14.8804 -7.11499 13.4391 -5.82764 12.297 -4.29169L28.3461 7.64249C27.8735 8.27813 27.2777 8.80998 26.5957 9.20702L16.5328 -8.07703ZM12.298 -4.29313C11.021 -2.57647 10.1589 -0.58629 9.78077 1.52159L29.4666 5.05263C29.2979 5.9929 28.9135 6.87975 28.345 7.64393L12.298 -4.29313ZM9.77653 1.54541C9.74872 1.70265 9.72733 1.83873 9.71601 1.91136C9.71178 1.93845 9.70327 1.99349 9.70251 1.99838C9.69942 2.01828 9.69916 2.01973 9.70015 2.01359L29.4438 5.20531C29.4529 5.14921 29.4607 5.09908 29.4658 5.0663C29.4683 5.05001 29.471 5.03275 29.4727 5.02169C29.4747 5.00898 29.4761 5.00012 29.4773 4.99245C29.4797 4.97683 29.4801 4.97464 29.4793 4.9792C29.4785 4.9841 29.4756 5.00194 29.4708 5.0288L9.77653 1.54541ZM9.68885 2.08518L9.66299 2.2528L29.4293 5.30133L29.4551 5.13371L9.68885 2.08518ZM9.54614 3.77707V4.28314H29.5461V3.77707H9.54614ZM10.0942 7.5483C9.76554 6.59682 9.58639 5.59846 9.56463 4.58893L29.56 4.15787C29.5369 3.08686 29.3468 2.0276 28.9981 1.01799L10.0942 7.5483ZM9.59284 5.15428C9.68166 6.28822 9.91151 7.40644 10.2769 8.48313L29.216 2.05588C29.3846 2.55272 29.4908 3.06891 29.5318 3.59251L9.59284 5.15428ZM10.2453 8.38856C11.3442 11.7358 13.6618 14.5424 16.7317 16.2567L26.4831 -1.20495C27.7888 -0.475768 28.778 0.720081 29.2476 2.15045L10.2453 8.38856ZM16.621 16.194C19.521 17.8623 22.9194 18.4438 26.2076 17.8368L22.577 -1.83089C23.9539 -2.08505 25.3776 -1.84184 26.5938 -1.14218L16.621 16.194ZM26.0797 17.8596C28.335 17.4735 30.463 16.5415 32.277 15.1434L20.0679 -0.697577C20.8407 -1.29325 21.7463 -1.68952 22.7049 -1.85363L26.0797 17.8596ZM31.7108 15.5491L31.7787 15.504L20.7019 -1.14846L20.6341 -1.10334L31.7108 15.5491ZM31.8345 15.4666L31.9444 15.3925L20.7559 -1.1852L20.6461 -1.11106L31.8345 15.4666ZM21.1803 15.6636L21.3031 15.7377L31.6427 -1.38218L31.52 -1.45633L21.1803 15.6636ZM19.7389 14.5706L19.8132 14.6383L33.2812 -0.147333L33.2069 -0.215022L19.7389 14.5706ZM19.5255 14.3655L20.0844 14.9167L34.1279 0.676598L33.5689 0.125392L19.5255 14.3655ZM20.1029 14.9349L22.0413 16.8367L36.0479 2.56026L34.1094 0.658447L20.1029 14.9349ZM22.4848 17.2463C22.9746 17.6719 23.5011 18.0528 24.0582 18.3844L34.2895 1.19952C34.755 1.47664 35.1951 1.79493 35.6044 2.1507L22.4848 17.2463ZM23.8129 18.2335L23.8484 18.2561L34.5703 1.37295L34.5348 1.35039L23.8129 18.2335ZM29.2094 19.8145H29.2449V-0.185475H29.2094V19.8145ZM34.7832 18.1409L34.8122 18.1215L23.7357 1.46886L23.7067 1.4882L34.7832 18.1409ZM33.7587 18.7331C34.8859 18.1676 35.9011 17.3997 36.753 16.4665L21.9824 2.98204C22.7811 2.10721 23.7327 1.38738 24.7892 0.857234L33.7587 18.7331ZM37.4988 15.5454C37.4887 15.5595 38.1313 14.7121 38.6251 13.5163C39.1644 12.2102 39.5024 10.606 39.3535 8.82532C39.0644 5.36549 37.1521 3.20224 36.2727 2.3468L22.327 16.6827C21.5768 15.953 19.7065 13.8832 19.423 10.4911C19.277 8.74424 19.6087 7.16747 20.1391 5.88304C20.6238 4.70907 21.2548 3.87775 21.2366 3.90312L37.4988 15.5454ZM36.2811 2.35503L33.7191 -0.143119L19.7565 14.1763L22.3185 16.6745L36.2811 2.35503ZM19.7731 -0.845429C20.9107 -1.73962 22.3142 -2.22227 23.7562 -2.21943L23.7167 17.7805C26.7665 17.7865 29.7318 16.7655 32.1324 14.8786L19.7731 -0.845429ZM23.7128 -2.21942C23.9823 -2.22006 24.2515 -2.20294 24.5186 -2.16821L21.9398 17.6648C22.5433 17.7433 23.1514 17.782 23.7601 17.7805L23.7128 -2.21942ZM24.2029 -2.20417C25.3192 -2.09495 26.3876 -1.68838 27.2961 -1.02465L15.4974 15.1244C17.48 16.5729 19.8142 17.4619 22.2555 17.7008L24.2029 -2.20417ZM27.2961 -1.02465C28.2047 -0.360825 28.9206 0.536443 29.3662 1.57525L10.9861 9.46017C11.9556 11.7202 13.5146 13.6758 15.4974 15.1244L27.2961 -1.02465ZM29.379 1.60531C29.7189 2.40472 29.8854 3.26788 29.867 4.13764L9.87147 3.71305C9.8298 5.67574 10.2056 7.62432 10.9733 9.43011L29.379 1.60531ZM29.8673 4.1227C29.8451 5.24424 29.5303 6.33927 28.9556 7.29964L11.7936 -2.96999C10.581 -0.943539 9.91781 1.36506 9.87117 3.72798L29.8673 4.1227ZM28.9556 7.29964C28.381 8.25988 27.5672 9.05134 26.5965 9.59819L16.7798 -7.82687C14.7255 -6.66952 13.0062 -4.99631 11.7936 -2.96999L28.9556 7.29964ZM27.0254 9.34226C26.0648 9.9485 24.9598 10.2833 23.8272 10.3133L23.2982 -9.67972C20.836 -9.61457 18.4356 -8.88664 16.3509 -7.57093L27.0254 9.34226ZM23.8272 10.3133C22.6946 10.3433 21.5738 10.0673 20.5829 9.51304L30.3469 -7.94156C28.1958 -9.14488 25.7605 -9.74486 23.2982 -9.67972L23.8272 10.3133ZM20.8291 9.64631C19.8867 9.15321 19.0824 8.42815 18.4935 7.53687L35.1798 -3.48882C33.9012 -5.42393 32.1529 -7.00111 30.1007 -8.07483L20.8291 9.64631ZM18.4935 7.53687C17.9045 6.64549 17.5507 5.61769 17.4672 4.54962L37.4063 2.9901C37.2252 0.675578 36.4585 -1.55362 35.1798 -3.48882L18.4935 7.53687ZM17.4672 4.54962C17.3836 3.48162 17.5732 2.41059 18.0172 1.4373L36.2135 9.73759C37.1765 7.62636 37.5873 5.30457 37.4063 2.9901L17.4672 4.54962ZM18.0172 1.4373C18.4611 0.464139 19.1441 -0.378037 19.9998 -1.01204L31.9057 15.0581C33.7675 13.6788 35.2505 11.8487 36.2135 9.73759L18.0172 1.4373ZM35.9528 7.02305V7.0166H15.9528V7.02305H35.9528Z" fill="black" mask="url(#path-1-inside-1_67_27)"/>
<mask id="path-3-inside-2_67_27" fill="white">
<path d="M10.0154 26.096H0V17.7151H10.0154V26.096ZM0.323077 25.7736H9.69231V18.0374H0.323077V25.7736Z"/>
</mask>
<path d="M10.0154 26.096H0V17.7151H10.0154V26.096ZM0.323077 25.7736H9.69231V18.0374H0.323077V25.7736Z" fill="black"/>
<path d="M10.0154 26.096V36.096H20.0154V26.096H10.0154ZM0 26.096H-10V36.096H0V26.096ZM0 17.7151V7.71509H-10V17.7151H0ZM10.0154 17.7151H20.0154V7.71509H10.0154V17.7151ZM0.323077 25.7736H-9.67692V35.7736H0.323077V25.7736ZM9.69231 25.7736V35.7736H19.6923V25.7736H9.69231ZM9.69231 18.0374H19.6923V8.03743H9.69231V18.0374ZM0.323077 18.0374V8.03743H-9.67692V18.0374H0.323077ZM10.0154 16.096H0V36.096H10.0154V16.096ZM10 26.096V17.7151H-10V26.096H10ZM0 27.7151H10.0154V7.71509H0V27.7151ZM0.0153849 17.7151V26.096H20.0154V17.7151H0.0153849ZM0.323077 35.7736H9.69231V15.7736H0.323077V35.7736ZM19.6923 25.7736V18.0374H-0.307692V25.7736H19.6923ZM9.69231 8.03743H0.323077V28.0374H9.69231V8.03743ZM-9.67692 18.0374V25.7736H10.3231V18.0374H-9.67692Z" fill="black" mask="url(#path-3-inside-2_67_27)"/>
<mask id="path-5-inside-3_67_27" fill="white">
<path d="M10.0154 18.0374H0V9.65656H10.0154V18.0374ZM0.323077 17.7151H9.69231V9.9789H0.323077V17.7151Z"/>
</mask>
<path d="M10.0154 18.0374H0V9.65656H10.0154V18.0374ZM0.323077 17.7151H9.69231V9.9789H0.323077V17.7151Z" fill="black"/>
<path d="M10.0154 18.0374V28.0374H20.0154V18.0374H10.0154ZM0 18.0374H-10V28.0374H0V18.0374ZM0 9.65656V-0.343445H-10V9.65656H0ZM10.0154 9.65656H20.0154V-0.343445H10.0154V9.65656ZM0.323077 17.7151H-9.67692V27.7151H0.323077V17.7151ZM9.69231 17.7151V27.7151H19.6923V17.7151H9.69231ZM9.69231 9.9789H19.6923V-0.0211032H9.69231V9.9789ZM0.323077 9.9789V-0.0211032H-9.67692V9.9789H0.323077ZM10.0154 8.03744H0V28.0374H10.0154V8.03744ZM10 18.0374V9.65656H-10V18.0374H10ZM0 19.6566H10.0154V-0.343445H0V19.6566ZM0.0153849 9.65656V18.0374H20.0154V9.65656H0.0153849ZM0.323077 27.7151H9.69231V7.7151H0.323077V27.7151ZM19.6923 17.7151V9.9789H-0.307692V17.7151H19.6923ZM9.69231 -0.0211032H0.323077V19.9789H9.69231V-0.0211032ZM-9.67692 9.9789V17.7151H10.3231V9.9789H-9.67692Z" fill="black" mask="url(#path-5-inside-3_67_27)"/>
<mask id="path-7-inside-4_67_27" fill="white">
<path d="M10.0154 9.9789H0V1.59802H10.0154V9.9789ZM0.323077 9.65656H9.69231V1.92036H0.323077V9.65656Z"/>
</mask>
<path d="M10.0154 9.9789H0V1.59802H10.0154V9.9789ZM0.323077 9.65656H9.69231V1.92036H0.323077V9.65656Z" fill="black"/>
<path d="M10.0154 9.9789V19.9789H20.0154V9.9789H10.0154ZM0 9.9789H-10V19.9789H0V9.9789ZM0 1.59802V-8.40198H-10V1.59802H0ZM10.0154 1.59802H20.0154V-8.40198H10.0154V1.59802ZM0.323077 9.65656H-9.67692V19.6566H0.323077V9.65656ZM9.69231 9.65656V19.6566H19.6923V9.65656H9.69231ZM9.69231 1.92036H19.6923V-8.07964H9.69231V1.92036ZM0.323077 1.92036V-8.07964H-9.67692V1.92036H0.323077ZM10.0154 -0.0210954H0V19.9789H10.0154V-0.0210954ZM10 9.9789V1.59802H-10V9.9789H10ZM0 11.598H10.0154V-8.40198H0V11.598ZM0.0153849 1.59802V9.9789H20.0154V1.59802H0.0153849ZM0.323077 19.6566H9.69231V-0.343437H0.323077V19.6566ZM19.6923 9.65656V1.92036H-0.307692V9.65656H19.6923ZM9.69231 -8.07964H0.323077V11.9204H9.69231V-8.07964ZM-9.67692 1.92036V9.65656H10.3231V1.92036H-9.67692Z" fill="black" mask="url(#path-7-inside-4_67_27)"/>
<mask id="path-9-inside-5_67_27" fill="white">
<path d="M19.7076 9.9789H9.69226V1.59802H19.7076V9.9789ZM10.0153 9.65656H19.3846V1.92036H10.0153V9.65656Z"/>
</mask>
<path d="M19.7076 9.9789H9.69226V1.59802H19.7076V9.9789ZM10.0153 9.65656H19.3846V1.92036H10.0153V9.65656Z" fill="black"/>
<path d="M19.7076 9.9789V19.9789H29.7076V9.9789H19.7076ZM9.69226 9.9789H-0.307739V19.9789H9.69226V9.9789ZM9.69226 1.59802V-8.40198H-0.307739V1.59802H9.69226ZM19.7076 1.59802H29.7076V-8.40198H19.7076V1.59802ZM10.0153 9.65656H0.0153377V19.6566H10.0153V9.65656ZM19.3846 9.65656V19.6566H29.3846V9.65656H19.3846ZM19.3846 1.92036H29.3846V-8.07964H19.3846V1.92036ZM10.0153 1.92036V-8.07964H0.0153377V1.92036H10.0153ZM19.7076 -0.0210954H9.69226V19.9789H19.7076V-0.0210954ZM19.6923 9.9789V1.59802H-0.307739V9.9789H19.6923ZM9.69226 11.598H19.7076V-8.40198H9.69226V11.598ZM9.70765 1.59802V9.9789H29.7076V1.59802H9.70765ZM10.0153 19.6566H19.3846V-0.343437H10.0153V19.6566ZM29.3846 9.65656V1.92036H9.38457V9.65656H29.3846ZM19.3846 -8.07964H10.0153V11.9204H19.3846V-8.07964ZM0.0153377 1.92036V9.65656H20.0153V1.92036H0.0153377Z" fill="black" mask="url(#path-9-inside-5_67_27)"/>
<mask id="path-11-inside-6_67_27" fill="white">
<path d="M19.7076 18.0374H9.69226V9.65656H19.7076V18.0374ZM10.0153 17.7151H19.3846V9.9789H10.0153V17.7151Z"/>
</mask>
<path d="M19.7076 18.0374H9.69226V9.65656H19.7076V18.0374ZM10.0153 17.7151H19.3846V9.9789H10.0153V17.7151Z" fill="black"/>
<path d="M19.7076 18.0374V28.0374H29.7076V18.0374H19.7076ZM9.69226 18.0374H-0.307739V28.0374H9.69226V18.0374ZM9.69226 9.65656V-0.343445H-0.307739V9.65656H9.69226ZM19.7076 9.65656H29.7076V-0.343445H19.7076V9.65656ZM10.0153 17.7151H0.0153377V27.7151H10.0153V17.7151ZM19.3846 17.7151V27.7151H29.3846V17.7151H19.3846ZM19.3846 9.9789H29.3846V-0.0211032H19.3846V9.9789ZM10.0153 9.9789V-0.0211032H0.0153377V9.9789H10.0153ZM19.7076 8.03744H9.69226V28.0374H19.7076V8.03744ZM19.6923 18.0374V9.65656H-0.307739V18.0374H19.6923ZM9.69226 19.6566H19.7076V-0.343445H9.69226V19.6566ZM9.70765 9.65656V18.0374H29.7076V9.65656H9.70765ZM10.0153 27.7151H19.3846V7.7151H10.0153V27.7151ZM29.3846 17.7151V9.9789H9.38457V17.7151H29.3846ZM19.3846 -0.0211032H10.0153V19.9789H19.3846V-0.0211032ZM0.0153377 9.9789V17.7151H20.0153V9.9789H0.0153377Z" fill="black" mask="url(#path-11-inside-6_67_27)"/>
<mask id="path-13-inside-7_67_27" fill="white">
<path d="M19.7076 26.096H9.69226V17.7151H19.7076V26.096ZM10.0153 25.7736H19.3846V18.0374H10.0153V25.7736Z"/>
</mask>
<path d="M19.7076 26.096H9.69226V17.7151H19.7076V26.096ZM10.0153 25.7736H19.3846V18.0374H10.0153V25.7736Z" fill="black"/>
<path d="M19.7076 26.096V36.096H29.7076V26.096H19.7076ZM9.69226 26.096H-0.307739V36.096H9.69226V26.096ZM9.69226 17.7151V7.71509H-0.307739V17.7151H9.69226ZM19.7076 17.7151H29.7076V7.71509H19.7076V17.7151ZM10.0153 25.7736H0.0153377V35.7736H10.0153V25.7736ZM19.3846 25.7736V35.7736H29.3846V25.7736H19.3846ZM19.3846 18.0374H29.3846V8.03743H19.3846V18.0374ZM10.0153 18.0374V8.03743H0.0153377V18.0374H10.0153ZM19.7076 16.096H9.69226V36.096H19.7076V16.096ZM19.6923 26.096V17.7151H-0.307739V26.096H19.6923ZM9.69226 27.7151H19.7076V7.71509H9.69226V27.7151ZM9.70765 17.7151V26.096H29.7076V17.7151H9.70765ZM10.0153 35.7736H19.3846V15.7736H10.0153V35.7736ZM29.3846 25.7736V18.0374H9.38457V25.7736H29.3846ZM19.3846 8.03743H10.0153V28.0374H19.3846V8.03743ZM0.0153377 18.0374V25.7736H20.0153V18.0374H0.0153377Z" fill="black" mask="url(#path-13-inside-7_67_27)"/>
<mask id="path-15-inside-8_67_27" fill="white">
<path d="M29.4 18.0374H19.3846V9.65656H29.4V18.0374ZM19.7077 17.7151H29.077V9.9789H19.7077V17.7151Z"/>
</mask>
<path d="M29.4 18.0374H19.3846V9.65656H29.4V18.0374ZM19.7077 17.7151H29.077V9.9789H19.7077V17.7151Z" fill="black"/>
<path d="M29.4 18.0374V28.0374H39.4V18.0374H29.4ZM19.3846 18.0374H9.38464V28.0374H19.3846V18.0374ZM19.3846 9.65656V-0.343445H9.38464V9.65656H19.3846ZM29.4 9.65656H39.4V-0.343445H29.4V9.65656ZM19.7077 17.7151H9.70772V27.7151H19.7077V17.7151ZM29.077 17.7151V27.7151H39.077V17.7151H29.077ZM29.077 9.9789H39.077V-0.0211032H29.077V9.9789ZM19.7077 9.9789V-0.0211032H9.70772V9.9789H19.7077ZM29.4 8.03744H19.3846V28.0374H29.4V8.03744ZM29.3846 18.0374V9.65656H9.38464V18.0374H29.3846ZM19.3846 19.6566H29.4V-0.343445H19.3846V19.6566ZM19.4 9.65656V18.0374H39.4V9.65656H19.4ZM19.7077 27.7151H29.077V7.7151H19.7077V27.7151ZM39.077 17.7151V9.9789H19.077V17.7151H39.077ZM29.077 -0.0211032H19.7077V19.9789H29.077V-0.0211032ZM9.70772 9.9789V17.7151H29.7077V9.9789H9.70772Z" fill="black" mask="url(#path-15-inside-8_67_27)"/>
<mask id="path-17-inside-9_67_27" fill="white">
<path d="M29.4 26.096H19.3846V17.7151H29.4V26.096ZM19.7077 25.7736H29.077V18.0374H19.7077V25.7736Z"/>
</mask>
<path d="M29.4 26.096H19.3846V17.7151H29.4V26.096ZM19.7077 25.7736H29.077V18.0374H19.7077V25.7736Z" fill="black"/>
<path d="M29.4 26.096V36.096H39.4V26.096H29.4ZM19.3846 26.096H9.38464V36.096H19.3846V26.096ZM19.3846 17.7151V7.71509H9.38464V17.7151H19.3846ZM29.4 17.7151H39.4V7.71509H29.4V17.7151ZM19.7077 25.7736H9.70772V35.7736H19.7077V25.7736ZM29.077 25.7736V35.7736H39.077V25.7736H29.077ZM29.077 18.0374H39.077V8.03743H29.077V18.0374ZM19.7077 18.0374V8.03743H9.70772V18.0374H19.7077ZM29.4 16.096H19.3846V36.096H29.4V16.096ZM29.3846 26.096V17.7151H9.38464V26.096H29.3846ZM19.3846 27.7151H29.4V7.71509H19.3846V27.7151ZM19.4 17.7151V26.096H39.4V17.7151H19.4ZM19.7077 35.7736H29.077V15.7736H19.7077V35.7736ZM39.077 25.7736V18.0374H19.077V25.7736H39.077ZM29.077 8.03743H19.7077V28.0374H29.077V8.03743ZM9.70772 18.0374V25.7736H29.7077V18.0374H9.70772Z" fill="black" mask="url(#path-17-inside-9_67_27)"/>
</g>
</svg>
