<svg width="44" height="44" viewBox="0 0 44 44" fill="none" xmlns="http://www.w3.org/2000/svg">
<path d="M34.4822 34.7865C32.6561 36.6243 30.4881 38.0822 28.1022 39.0768C25.7163 40.0714 23.159 40.5833 20.5765 40.5833C15.3608 40.5833 10.3588 38.4981 6.67081 34.7865C2.98279 31.0748 0.910889 26.0407 0.910889 20.7917C0.910889 15.5426 2.98279 10.5085 6.67081 6.79684C10.3588 3.08519 15.3608 1 20.5765 1C23.159 1 25.7163 1.51193 28.1022 2.50655C30.4881 3.50117 32.6561 4.95902 34.4822 6.79684C36.3083 8.63467 37.7569 10.8165 38.7451 13.2177C39.7334 15.619 40.2421 18.1926 40.2421 20.7917C40.2421 23.3907 39.7334 25.9644 38.7451 28.3656C37.7569 30.7668 36.3083 32.9487 34.4822 34.7865ZM34.4822 34.7865L42.3122 42.6667" stroke="black" stroke-width="1.5" stroke-linecap="round" stroke-linejoin="round"/>
</svg>
