<svg xmlns="http://www.w3.org/2000/svg" viewBox="0 0 39.3 39.5"><defs><style>.cls-1{fill:#010101;}</style></defs><g id="Layer_2" data-name="Layer 2"><g id="Layer_1-2" data-name="Layer 1"><path class="cls-1" d="M19.55,18C9.31,19.47,5.61,19.56,3.4,18.3l-.69,1c2.72,1.6,6.8,1.36,17-.1s13.93-1.55,16.15-.29l.69-1C33.85,16.31,29.76,16.55,19.55,18Z"/><path class="cls-1" d="M38.6.56A2.32,2.32,0,0,0,37.05,0,2.15,2.15,0,0,0,34.8,2.24a10.42,10.42,0,0,1-.38,3A14,14,0,0,1,32.28,9.7l-.14.2-.2-.13c-6.5-4-17.64-4.11-24.31-.18l-.18.11-.14-.16A13,13,0,0,1,4.89,5.12a9,9,0,0,1-.42-2.88A2.16,2.16,0,0,0,2.24,0,2.16,2.16,0,0,0,0,2.24,13.17,13.17,0,0,0,.57,6.15,18.1,18.1,0,0,0,4,12.46l.12.15L4,12.76a10.07,10.07,0,0,0-2,5.86c0,5.27,4.66,9.45,12.48,11.17,1.66.36,2.43,1.24,2.43,2.75v4a2.75,2.75,0,1,0,5.47,0v-4c0-1.55.7-2.36,2.35-2.7,7.87-1.61,12.57-5.8,12.57-11.22a9.43,9.43,0,0,0-1.75-5.55l-.1-.15.1-.14a20,20,0,0,0,3.23-6.59,14.61,14.61,0,0,0,.53-3.95A2.14,2.14,0,0,0,38.6.56ZM37.33,5.8a18.68,18.68,0,0,1-3.42,6.67.74.74,0,0,0,0,.93,8,8,0,0,1,1.87,5.22c0,4.66-4.26,8.31-11.38,9.77-2.38.48-3.54,1.84-3.54,4.15v4c0,.91-.49,1.49-1.24,1.49s-1.25-.58-1.25-1.49v-4c0-2.27-1.21-3.68-3.6-4.21C7.71,26.77,3.48,23.14,3.48,18.62a8.81,8.81,0,0,1,2.17-5.55.74.74,0,0,0,0-1A16.83,16.83,0,0,1,2,5.73a11.71,11.71,0,0,1-.51-3.49.7.7,0,0,1,.75-.75A.69.69,0,0,1,3,2.24a10.45,10.45,0,0,0,.48,3.31,15.05,15.05,0,0,0,3.29,5.62.75.75,0,0,0,1,.12c6.33-4.23,18.07-4.12,24.16.23a.75.75,0,0,0,1-.15,16.07,16.07,0,0,0,3-5.78,11.83,11.83,0,0,0,.43-3.35.76.76,0,0,1,1.52,0A13,13,0,0,1,37.33,5.8Z"/></g></g></svg>