<svg xmlns="http://www.w3.org/2000/svg" viewBox="0 0 32 40.39"><defs><style>.cls-1{fill:#010101;}.cls-2{fill:none;stroke:#000;stroke-linecap:round;stroke-miterlimit:10;stroke-width:1.5px;}</style></defs><g id="Layer_2" data-name="Layer 2"><g id="Layer_1-2" data-name="Layer 1"><path class="cls-1" d="M2,1C2,2.7,2,2.84,3,8.06A45.17,45.17,0,0,1,4,17a18.09,18.09,0,0,1-.86,5.42c-.14.48-.3,1-.52,1.65-.06.18-.14.42-.28.86s-.21.62-.29.89A39.45,39.45,0,0,0,0,39a1,1,0,0,0,2,0A37.51,37.51,0,0,1,4,26.43c.09-.26.17-.53.29-.88l.28-.86c.23-.7.39-1.2.54-1.7A20.4,20.4,0,0,0,6,17,46.28,46.28,0,0,0,5,7.69C4,2.67,4,2.51,4,1A1,1,0,0,0,2,1Z"/><path class="cls-1" d="M30,1c0,1.7,0,1.84-1,7.06A45.17,45.17,0,0,0,28,17a18.09,18.09,0,0,0,.86,5.42c.14.48.3,1,.52,1.65.06.18.14.42.28.86s.21.62.29.89A39.45,39.45,0,0,1,32,39a1,1,0,0,1-2,0,37.51,37.51,0,0,0-1.95-12.57c-.09-.26-.17-.53-.29-.88l-.28-.86c-.23-.7-.39-1.2-.54-1.7A20.4,20.4,0,0,1,26,17a46.28,46.28,0,0,1,1-9.31c.95-5,1-5.18,1-6.69a1,1,0,0,1,2,0Z"/><path class="cls-2" d="M16.27,39.64a17.77,17.77,0,0,0,.91-5.17A18.26,18.26,0,0,0,16.77,30"/></g></g></svg>