<svg xmlns="http://www.w3.org/2000/svg" viewBox="0 0 46.8 40"><defs><style>.cls-1{fill:#010101;}</style></defs><g id="Layer_2" data-name="Layer 2"><g id="Layer_1-2" data-name="Layer 1"><path class="cls-1" d="M35.89.15c-4.57-.63-6.7,1.14-7.74,2.7-2.13,3.38-.88,8.57.1,10.08a5.05,5.05,0,0,1,.94,2.34c-3.12-.16-5,1.14-5.82,3.89-.78-2.75-2.75-4.05-5.82-3.89a5.26,5.26,0,0,1,.94-2.34c1-1.51,2.23-6.7.1-10.08-1-1.61-3.17-3.38-7.74-2.7C-.38,1.76-.22,15.84.09,20.1.4,24.78,2.17,35.64,11,35.64a6.36,6.36,0,0,0,4.73-2.24A8.81,8.81,0,0,0,18,26.8a25.8,25.8,0,0,0-.63-3.74,2.36,2.36,0,0,1-.15-.73,4.43,4.43,0,0,1,2.44.73,2,2,0,0,1,.73,1.61v14.5a.83.83,0,0,0,1.66,0V24.72a3.76,3.76,0,0,0-1.3-2.91C18.17,19.94,13.5,21,13,21.09a.83.83,0,0,0-.63,1,.84.84,0,0,0,1,.63,13.57,13.57,0,0,1,2.18-.31,5.12,5.12,0,0,0,.21,1.14A19.27,19.27,0,0,1,16.3,27a7.16,7.16,0,0,1-1.82,5.35A4.74,4.74,0,0,1,11,34C3.47,34,2,24.2,1.7,20c-.26-3.95-.41-16.84,9.41-18.24,3-.42,5,.26,6.13,2,1.76,2.76.62,7.28,0,8.32a6.44,6.44,0,0,0-1.25,3.22h-4a.83.83,0,1,0,0,1.66h5.4c1.92-.15,4,.1,4.62,3.17l.06.21a1.43,1.43,0,0,0,2.8,0l.05-.26c.63-3.12,2.71-3.33,4.63-3.17h5.4a.83.83,0,0,0,0-1.66H30.8A6.34,6.34,0,0,0,29.55,12c-.67-1-1.82-5.56-.05-8.31,1.09-1.71,3.17-2.39,6.13-2C45.5,3.16,45.35,16.1,45,20c-.32,4.2-1.82,14-9.3,14a4.82,4.82,0,0,1-3.54-1.71A7.2,7.2,0,0,1,30.38,27,19.74,19.74,0,0,1,31,23.48a5.06,5.06,0,0,0,.2-1.15,14.55,14.55,0,0,1,2.19.32.82.82,0,0,0,1-.63.81.81,0,0,0-.62-1c-.52-.11-5.25-1.15-7.59.77a3.47,3.47,0,0,0-1.3,2.91V39.17a.84.84,0,0,0,1.67,0V24.72a1.79,1.79,0,0,1,.72-1.61,4.47,4.47,0,0,1,2.45-.72,2.43,2.43,0,0,1-.16.72,16.11,16.11,0,0,0-.62,3.74,8.76,8.76,0,0,0,2.23,6.6,6.28,6.28,0,0,0,4.73,2.24c8.83,0,10.55-10.86,10.91-15.54.21-4.31.36-18.39-10.86-20Z"/></g></g></svg>