<svg xmlns="http://www.w3.org/2000/svg" viewBox="0 0 40 38.84"><defs><style>.cls-1{fill:#010101;}</style></defs><g id="Layer_2" data-name="Layer 2"><g id="Layer_1-2" data-name="Layer 1"><path class="cls-1" d="M39.45,26.72c-1.16-6.31-5.56-18.13-11-18.13a5.85,5.85,0,0,0-5,3V.63h0A.65.65,0,0,0,22.74,0a.61.61,0,0,0-.45.2.63.63,0,0,0-.18.45V14.88h0a.64.64,0,0,0,.58.7.64.64,0,0,0,.7-.58c0-.21,1-5.14,5.05-5.14S36.92,20,38.19,26.94c1.53,8.39-.57,10-2.76,10.44-2.57.54-5-1.42-7-3a19,19,0,0,0-1.72-1.28h0A8.41,8.41,0,0,1,23,28.28,49.41,49.41,0,0,1,23,20a.64.64,0,0,0-.39-.63l-2.34-.88a.58.58,0,0,0-.45,0l-2.35.88a.66.66,0,0,0-.41.65,49.29,49.29,0,0,1,0,8.24,8.33,8.33,0,0,1-3.74,4.83c-.54.36-1.12.81-1.72,1.28-1.93,1.6-4.41,3.55-7,3C2.36,36.91.28,35.3,1.81,26.92,3.09,20,7.5,9.84,11.55,9.84s5,4.94,5.05,5.13h0a.62.62,0,0,0,.69.53.65.65,0,0,0,.6-.64V.67h0a.65.65,0,0,0-1.29,0v10.9h0a5.85,5.85,0,0,0-5-3c-5.46,0-9.87,11.81-11,18.13-.91,5-1.29,10.88,3.85,11.94,3.13.66,5.86-1.5,8-3.24.59-.48,1.15-.92,1.63-1.29h0a9.62,9.62,0,0,0,4.28-5.6,46.22,46.22,0,0,0,0-8.15L20,19.8l1.65.63a46.33,46.33,0,0,0,0,8.16A9.66,9.66,0,0,0,26,34.19a16.27,16.27,0,0,1,1.63,1.28c1.91,1.53,4.23,3.36,6.88,3.36h0a6.45,6.45,0,0,0,1.17-.13c5.11-1.11,4.73-7,3.82-12Z"/></g></g></svg>