<svg xmlns="http://www.w3.org/2000/svg" viewBox="0 0 28.5 39.03"><defs><style>.cls-1{fill:#231f20;}</style></defs><g id="Layer_2" data-name="Layer 2"><g id="Layer_1-2" data-name="Layer 1"><path class="cls-1" d="M17.06,29.24c2.5-1.67,4.25-5.49,4.25-9.94,0-4.88-2.12-9-5-10.37a4.71,4.71,0,1,0-4.1,0c-2.9,1.35-5,5.49-5,10.37,0,4.45,1.76,8.27,4.25,9.94C5.49,29.64,0,31.31,0,34.08c0,3.21,7.34,5,14.25,5s14.25-1.74,14.25-5C28.5,31.31,23,29.64,17.06,29.24ZM10.54,4.71a3.71,3.71,0,1,1,3.71,3.71A3.72,3.72,0,0,1,10.54,4.71ZM8.18,19.3c0-5.42,2.72-9.83,6.07-9.83s6.06,4.41,6.06,9.83-2.72,9.84-6.06,9.84S8.18,24.73,8.18,19.3ZM14.25,38C6.44,38,1,36,1,34.08s5.44-3.94,13.25-3.94S27.5,32.22,27.5,34.08,22.05,38,14.25,38Z"/></g></g></svg>