<svg width="19" height="15" viewBox="0 0 19 15" fill="none" xmlns="http://www.w3.org/2000/svg">
<path d="M15.3124 12.9924H3.24809C2.99288 12.9924 2.78408 13.2012 2.78408 13.4564V14.3844C2.78408 14.6396 2.99288 14.8484 3.24809 14.8484H15.3124C15.5676 14.8484 15.7764 14.6396 15.7764 14.3844V13.4564C15.7764 13.2012 15.5676 12.9924 15.3124 12.9924ZM17.1685 3.7121C16.4 3.7121 15.7764 4.33562 15.7764 5.10414C15.7764 5.31005 15.8228 5.50145 15.904 5.67836L13.8044 6.937C13.3578 7.2038 12.7807 7.053 12.5226 6.60059L10.159 2.46507C10.4693 2.20986 10.6723 1.82705 10.6723 1.39204C10.6723 0.623518 10.0488 0 9.28026 0C8.51174 0 7.88822 0.623518 7.88822 1.39204C7.88822 1.82705 8.09123 2.20986 8.40154 2.46507L6.03797 6.60059C5.77986 7.053 5.19985 7.2038 4.75613 6.937L2.65937 5.67836C2.73768 5.50435 2.78698 5.31005 2.78698 5.10414C2.78698 4.33562 2.16346 3.7121 1.39494 3.7121C0.626418 3.7121 0 4.33562 0 5.10414C0 5.87267 0.623518 6.49618 1.39204 6.49618C1.46744 6.49618 1.54284 6.48458 1.61535 6.47298L3.7121 12.0643H14.8484L16.9452 6.47298C17.0177 6.48458 17.0931 6.49618 17.1685 6.49618C17.937 6.49618 18.5605 5.87267 18.5605 5.10414C18.5605 4.33562 17.937 3.7121 17.1685 3.7121Z" fill="black"/>
</svg>
