<svg width="17" height="17" viewBox="0 0 17 17" fill="none" xmlns="http://www.w3.org/2000/svg">
<path d="M11.3442 0.656131L10.9847 0.510584L10.7706 0.480619C10.1551 0.434398 9.55239 0.280827 8.9898 0.0268555H8.77148C9.39235 0.353434 10.0749 0.545946 10.7749 0.591919C10.9718 0.626166 11.1687 0.643289 11.3656 0.677535L11.3442 0.656131Z" fill="white"/>
<path d="M14.3873 3.06618C14.6792 4.02214 15.0769 4.9425 15.5731 5.81017C15.6741 5.97592 15.7841 6.13598 15.9027 6.28962L15.8599 6.08842C15.2734 5.17423 14.8167 4.18304 14.5029 3.14324C14.4515 3.07047 14.3916 3.00197 14.3359 2.9292L14.3873 3.06618Z" fill="white"/>
<path d="M15.9925 7.7708C15.5002 7.54392 14.7639 7.00026 14.0276 4.94977C13.8438 4.38013 13.4668 3.89259 12.9617 3.57135C12.4808 3.28637 11.9429 3.11097 11.3864 3.05766C11.1295 3.00201 10.877 3.00201 10.6287 2.96776C9.77252 2.88215 8.94205 2.80081 8.40267 2.15441C7.86329 1.50801 6.9258 1.97034 6.01827 2.40698L5.68437 2.57393C4.66126 3.03197 3.75802 3.31023 3.08165 1.99174C3.0361 1.8937 2.97859 1.80168 2.91042 1.71777L2.77344 1.82907C2.83074 1.90262 2.88091 1.98146 2.92326 2.06452C3.02822 2.34349 3.20577 2.58938 3.43756 2.77677C3.66935 2.96416 3.94698 3.08625 4.24175 3.13043C4.7733 3.12049 5.29461 2.98245 5.76143 2.72804L6.09961 2.57393C6.98145 2.14585 7.81192 1.74774 8.24 2.27428C8.84359 2.98061 9.72543 3.07906 10.5902 3.15184C10.8384 3.15184 11.091 3.20321 11.3393 3.23745C12.6835 3.41296 13.4797 3.97803 13.835 5.01398C14.6098 7.15437 15.3804 7.69803 15.8983 7.94204L16.0182 7.98484V7.79649L15.9925 7.7708Z" fill="white"/>
<path d="M0.572743 5.35626C1.24911 3.69104 2.0753 2.57375 2.6318 2.53094C2.833 2.53094 3.00423 2.66365 3.1455 2.95902C3.24661 3.23042 3.41946 3.4693 3.64561 3.65022C3.87176 3.83114 4.14276 3.94733 4.42973 3.98641C4.94688 3.98587 5.45632 3.86108 5.91516 3.62254L6.25335 3.47272C7.1095 3.08745 7.90145 2.7193 8.29528 3.19875C8.8475 3.86655 9.72078 3.93932 10.5598 4.0121C10.7953 4.0335 11.0435 4.05062 11.279 4.08487C12.5846 4.2347 13.3509 4.74411 13.6805 5.69016C14.4125 7.65076 15.2045 8.15162 15.7353 8.35709C15.8359 8.38751 15.9391 8.409 16.0435 8.42131C16.0435 8.35281 16.0435 8.28432 16.0435 8.21155C15.965 8.19761 15.8877 8.17758 15.8123 8.15162C15.3201 7.9547 14.5838 7.48809 13.8817 5.60883C13.7004 5.06588 13.3256 4.6087 12.8286 4.32459C12.354 4.06117 11.8286 3.90209 11.2875 3.85799C11.0435 3.82374 10.7995 3.80234 10.5598 3.78093C9.70366 3.71244 8.93312 3.64395 8.41942 3.04464C7.90573 2.44533 7.01533 2.85628 6.12492 3.25868L5.81671 3.42991C4.815 3.85799 3.95028 4.10199 3.32957 2.85628C3.1455 2.49242 2.90149 2.30834 2.61896 2.32119C2.25258 2.38507 1.92634 2.59128 1.71143 2.89481C1.5581 3.09269 1.41521 3.29845 1.28335 3.51124C1.01441 3.93791 0.778287 4.38439 0.577024 4.84685C0.33929 5.42119 0.171143 6.02192 0.0761719 6.63622C0.225999 6.20814 0.39295 5.78006 0.572743 5.35198V5.35626Z" fill="white"/>
<path d="M0 8.07456C0.261128 7.37251 0.54366 6.68759 0.856157 5.99838C1.60958 4.41021 2.3844 3.42991 2.89381 3.42991C3.0736 3.42991 3.23627 3.57118 3.3647 3.8323C4.01966 5.18075 5.04705 4.89822 6.04019 4.49583L6.37837 4.35456C7.18744 4.00353 7.95798 3.67391 8.30472 4.10199C8.81842 4.73983 9.6703 4.80832 10.4922 4.86397C10.7191 4.86397 10.9503 4.89822 11.1729 4.9239C12.4571 5.05233 13.1763 5.50181 13.4888 6.35369C14.1822 8.16446 14.987 8.61394 15.5307 8.77661C15.6707 8.81408 15.8141 8.83703 15.9588 8.8451C15.9631 8.76622 15.9717 8.68762 15.9845 8.60966C15.85 8.6015 15.7166 8.57999 15.5863 8.54545C15.0898 8.38706 14.3535 7.98039 13.6985 6.26807C13.523 5.76691 13.1676 5.34886 12.7011 5.09514C12.2326 4.85288 11.7202 4.7073 11.1943 4.66706C10.9631 4.63709 10.7319 4.61997 10.5008 4.60713C9.70026 4.54719 8.934 4.49154 8.48452 3.93932C8.03504 3.3871 7.13607 3.75097 6.28419 4.1234L5.95029 4.26466C5.53437 4.46776 5.07755 4.57318 4.61469 4.57288C4.38188 4.53546 4.16336 4.4363 3.98191 4.28571C3.80046 4.13513 3.66271 3.93864 3.58302 3.71672C3.42463 3.37426 3.19775 3.19019 2.91093 3.19019C2.62412 3.19019 2.17036 3.48128 1.738 4.04634C1.31719 4.62496 0.955775 5.24453 0.659241 5.89564C0.428079 6.39649 0.205478 6.90163 0.0214039 7.38107C0.0214039 7.51378 0.0214039 7.65076 0.0214039 7.78347C0.00638667 7.87992 0.00638667 7.97811 0.0214039 8.07456H0Z" fill="white"/>
<path d="M14.1689 4.28597C13.9849 3.67864 13.6 3.15186 13.0773 2.79197C12.5939 2.48287 12.0464 2.28815 11.4763 2.22263C11.2109 2.19266 10.9412 2.14557 10.6758 2.14557C9.78114 2.04711 8.93354 1.95722 8.3428 1.25945C7.75205 0.561682 6.81456 1.07966 5.88562 1.55054L5.56457 1.71749C4.63992 2.14557 3.80944 2.45379 3.12452 1.58479L2.99609 1.66184C3.11837 1.83678 3.27762 1.98267 3.46257 2.0892C3.64751 2.19573 3.85362 2.26028 4.06629 2.27828C4.61216 2.26948 5.14685 2.12218 5.62022 1.8502L5.95412 1.68325C6.87021 1.22092 7.7392 0.784283 8.22293 1.36219C8.85649 2.09848 9.7683 2.21835 10.6544 2.29968C10.9155 2.32537 11.1852 2.35533 11.4421 2.40242C12.8248 2.60362 13.6467 3.22861 14.0106 4.36302C14.7811 6.5505 15.5174 7.22687 16.014 7.52652V7.34245C15.5431 7.02567 14.871 6.33646 14.1561 4.31593L14.1689 4.28597Z" fill="white"/>
<path d="M14.3227 3.66541C14.1351 3.02294 13.7409 2.46023 13.2011 2.0644C12.7091 1.73061 12.1465 1.51523 11.5573 1.43512C11.2834 1.38375 10.9965 1.34951 10.7226 1.31526C9.79792 1.20396 8.92036 1.09694 8.2868 0.356365C7.65324 -0.384211 6.68579 0.180852 5.71833 0.685985L5.40583 0.861497C4.73803 1.19968 4.1216 1.46509 3.55225 1.26389L3.42383 1.34523C4.04882 1.60207 4.74231 1.31954 5.45292 0.959955L5.78682 0.784443C6.75 0.27931 7.65324 -0.200138 8.1969 0.433419C8.86471 1.19968 9.79792 1.31526 10.7012 1.42656C10.9751 1.46081 11.2577 1.49505 11.5316 1.5507C12.9486 1.77759 13.7962 2.46251 14.2028 3.6911C14.8963 5.70735 15.5256 6.54638 16.0051 6.96162C16.0093 6.90176 16.0093 6.84168 16.0051 6.78182C15.547 6.35375 14.9734 5.49759 14.3356 3.65257L14.3227 3.66541Z" fill="white"/>
<path d="M13.8018 12.4195C13.0655 12.4195 12.6803 12.2354 12.5176 11.8544C12.3549 11.4734 11.7299 11.2722 10.527 11.2808H10.0347C9.74963 11.2986 9.46369 11.2986 9.17858 11.2808C8.88749 11.2508 8.8404 11.1866 8.83612 11.1866C8.60924 10.8698 8.07842 10.9897 7.34212 11.1652C6.92168 11.2774 6.49178 11.3504 6.05789 11.3835C5.54848 11.3835 5.47998 11.2037 5.45858 11.131C5.42888 11.0451 5.37864 10.9679 5.31223 10.906C5.24582 10.844 5.16526 10.7993 5.07759 10.7757C4.71747 10.7211 4.34992 10.8019 4.04592 11.0025C3.65675 11.2132 3.28713 11.4582 2.94148 11.7345C2.51354 12.0696 2.10345 12.4268 1.71289 12.8047C1.80707 12.9289 1.90981 13.0573 2.01255 13.1772C2.40585 12.8003 2.81881 12.4445 3.24969 12.1113C4.14866 11.4178 4.76937 11.1566 4.98341 11.2166C4.99996 11.2207 5.01507 11.2293 5.02714 11.2413C5.0392 11.2534 5.04776 11.2685 5.0519 11.2851C5.19317 11.6703 5.55276 11.8544 6.11782 11.8458C6.57794 11.8152 7.03391 11.7392 7.47911 11.619C7.73596 11.559 7.97568 11.5034 8.16832 11.4734C8.27426 11.452 8.38343 11.452 8.48938 11.4734C8.73338 11.7902 9.31557 11.7774 10.0561 11.7645H10.5399C11.9226 11.7645 12.0724 12.0171 12.0852 12.047C12.4405 12.8604 13.4422 12.8818 13.7976 12.9032C13.926 12.9032 14.0929 12.9032 14.2941 12.9032C14.4225 12.7363 14.5424 12.565 14.6623 12.3895C14.3783 12.4263 14.0924 12.4463 13.8061 12.4494L13.8018 12.4195Z" fill="white"/>
<path d="M5.63772 14.2989C5.82607 14.5643 6.29268 14.5386 6.52812 14.5258C6.89199 14.5258 7.34147 14.4402 7.72674 14.3845C8.01014 14.3354 8.29592 14.3011 8.5829 14.2818C8.74985 14.3888 9.06235 14.3888 10.0341 14.3503C10.5556 14.3111 11.0793 14.3111 11.6009 14.3503C11.7207 14.5215 11.9562 14.62 12.38 14.667C12.6325 14.4958 12.868 14.316 13.0991 14.1234H12.8209C12.5664 14.1417 12.3109 14.1052 12.0717 14.0164C11.9604 13.8152 11.6693 13.7595 11.2156 13.751C10.8688 13.751 10.4365 13.751 10.017 13.7766C9.64056 13.798 9.26324 13.798 8.88683 13.7766C8.7156 13.6482 8.39454 13.6953 7.65397 13.8066C7.32435 13.8537 6.94764 13.9093 6.63942 13.935C6.45624 13.9607 6.27037 13.9607 6.0872 13.935C6.04786 13.8658 5.98804 13.8105 5.91597 13.7766C5.61548 13.6912 5.29532 13.7063 5.00416 13.8195C4.61382 13.9225 4.2294 14.0469 3.85263 14.1919C3.66427 14.2604 3.4802 14.3331 3.30469 14.3931C3.48448 14.5301 3.67284 14.6585 3.86547 14.7912L4.04526 14.7227C4.55804 14.5066 5.09827 14.3625 5.65056 14.2946L5.63772 14.2989Z" fill="white"/>
<path d="M12.3654 12.5779C12.2241 12.2183 11.6377 12.0771 10.4433 12.1028H9.96387C9.6899 12.1028 9.42877 12.1028 9.22329 12.1028C9.10654 12.1078 8.98999 12.0888 8.88083 12.0471C8.67963 11.7774 8.21731 11.8716 7.45961 12.0257C7.05608 12.1228 6.64511 12.1858 6.23102 12.2141C6.01698 12.2141 5.75157 12.2141 5.70021 12.0642C5.67489 11.9902 5.63271 11.923 5.577 11.868C5.52128 11.8131 5.45355 11.7718 5.37915 11.7475C4.97675 11.6105 4.25758 11.8759 3.23875 12.5266C2.81068 12.7877 2.4254 13.0745 2.11719 13.3057C2.23277 13.4341 2.34835 13.5582 2.46821 13.6781C2.76359 13.4598 3.12745 13.1986 3.50844 12.9546C3.87185 12.723 4.2542 12.5225 4.65141 12.3553C5.07949 12.1841 5.2122 12.2355 5.22504 12.2398C5.34918 12.5779 5.69592 12.7406 6.24815 12.7278C6.69081 12.6952 7.13023 12.628 7.56235 12.5266C7.87079 12.449 8.18635 12.4031 8.50412 12.3896C8.731 12.6421 9.25754 12.6293 9.98099 12.6079H10.4519C11.6762 12.5822 11.8817 12.7577 11.9031 12.7791C12.207 13.4641 13.1573 13.4683 13.5597 13.4726H13.7823C13.9407 13.2971 14.0948 13.1216 14.2404 12.9332C14.0006 12.9546 13.7738 12.9675 13.5597 12.9675C13.0888 12.9675 12.5195 12.9033 12.3697 12.5651L12.3654 12.5779Z" fill="white"/>
<path d="M14.9844 9.85105C14.4493 9.76116 13.7815 9.50859 13.2721 8.29285C12.9939 7.58224 12.2319 7.20125 10.9519 7.13275L10.3526 7.10279C9.63346 7.0771 8.95281 7.05142 8.64031 6.67471C8.27645 6.20382 7.49734 6.47351 6.66687 6.77317L6.34153 6.88875C5.96064 7.04146 5.55324 7.11712 5.14291 7.11135C4.95636 7.08601 4.78085 7.00818 4.63685 6.88691C4.49285 6.76564 4.38627 6.60594 4.32956 6.42642C4.29947 6.35485 4.26065 6.28727 4.21398 6.22523C4.41234 6.41352 4.66912 6.52832 4.94171 6.55057C5.41475 6.56536 5.88528 6.47622 6.32013 6.28944L6.65403 6.1653C7.36892 5.89133 8.10093 5.61308 8.36634 5.9427C8.79442 6.4992 9.57781 6.54201 10.3954 6.57625C10.6029 6.58001 10.8101 6.59429 11.0161 6.61906C11.4722 6.63672 11.9216 6.73528 12.3432 6.91015C12.5225 6.98382 12.6854 7.09259 12.8221 7.23005C12.9588 7.36752 13.0667 7.53092 13.1394 7.71066C13.7387 9.23462 14.5649 9.56852 15.1257 9.6841C15.3505 9.72254 15.5793 9.73118 15.8063 9.70979C15.832 9.60705 15.8534 9.51287 15.8748 9.40157C15.6465 9.43799 15.4139 9.43799 15.1856 9.40157C14.6463 9.28171 13.9613 8.97349 13.4305 7.59936C13.1309 6.82026 12.3518 6.40074 11.0461 6.31512L10.4126 6.2766C9.6677 6.23807 8.96137 6.20382 8.61035 5.75434C8.49823 5.63265 8.35325 5.54605 8.19295 5.50502C8.03265 5.464 7.86389 5.47031 7.7071 5.52318C7.31547 5.60807 6.93277 5.72991 6.56413 5.88705L6.22595 6.01119C5.83272 6.18039 5.40829 6.26499 4.98024 6.25947C4.77874 6.23111 4.58912 6.14721 4.43262 6.01717C4.27611 5.88713 4.1589 5.71608 4.09412 5.52318C4.04928 5.37919 3.96106 5.25257 3.84153 5.16063C3.722 5.06868 3.57698 5.01589 3.42632 5.00948C2.62581 4.96668 1.67547 6.39646 1.1789 7.24406C0.791683 7.91214 0.444333 8.60256 0.138672 9.31168C0.168637 9.47863 0.207164 9.6413 0.245692 9.80825C0.596612 8.98225 0.998348 8.17878 1.44859 7.40244C2.21485 6.07968 2.99824 5.27917 3.42632 5.30058C3.48197 5.30058 3.6532 5.30058 3.80731 5.64732C3.87618 5.79851 3.96084 5.942 4.05987 6.0754C3.96466 5.99145 3.84412 5.94173 3.71741 5.93413C2.94687 5.86992 1.97941 7.167 1.47428 7.93326C1.04141 8.59637 0.649691 9.28545 0.301342 9.9966C0.34415 10.1507 0.395519 10.3005 0.442608 10.4504C0.827767 9.64213 1.26534 8.85993 1.75253 8.10877C2.52307 6.92728 3.26793 6.21239 3.69172 6.24663C3.74309 6.24663 3.89292 6.24663 4.02991 6.55913C4.08902 6.70237 4.16831 6.83643 4.26535 6.95724C4.18389 6.90399 4.0919 6.86895 3.99566 6.8545C3.78361 6.86272 3.57538 6.91358 3.38342 7.00404C3.19146 7.09451 3.01969 7.22272 2.87837 7.38104C2.464 7.76168 2.09093 8.18496 1.76537 8.64387C1.30423 9.27271 0.883854 9.93044 0.506819 10.613C0.558189 10.7629 0.61812 10.9041 0.678051 11.0411C1.08572 10.2856 1.54485 9.55901 2.05218 8.86647C2.36318 8.43092 2.71901 8.02918 3.11382 7.66785C3.33498 7.42226 3.64081 7.26935 3.96998 7.23977C4.01278 7.23977 4.14549 7.23977 4.25251 7.50946C4.31218 7.65335 4.39298 7.78753 4.49223 7.90758C4.4296 7.87335 4.36154 7.85018 4.29103 7.83908C3.87933 7.83769 3.48381 7.99928 3.19087 8.28857C2.77597 8.62664 2.39724 9.0068 2.06074 9.42298C1.58611 9.99516 1.14858 10.5971 0.750824 11.2252C0.815036 11.3622 0.879248 11.4992 0.952021 11.6233C1.37557 10.9387 1.84317 10.2824 2.35184 9.65842C3.12238 8.72093 3.85439 8.13874 4.21826 8.21579C4.28247 8.21579 4.37237 8.2586 4.44942 8.4384C4.50875 8.59625 4.59735 8.74148 4.71055 8.86647C4.66204 8.84173 4.6101 8.82441 4.55644 8.8151C4.15948 8.79394 3.76975 8.92743 3.46912 9.18753C3.06471 9.48556 2.68921 9.82094 2.34756 10.1892C1.87292 10.6953 1.42974 11.23 1.02051 11.7903C1.09329 11.9272 1.17034 12.0557 1.2474 12.1926C1.67816 11.5923 2.14717 11.0203 2.65149 10.4803C3.4306 9.65842 4.14549 9.16613 4.47511 9.23034C4.52648 9.23034 4.59925 9.26887 4.65062 9.40585C4.71781 9.56885 4.82012 9.71501 4.95028 9.83393C4.91134 9.81336 4.86947 9.79892 4.82613 9.79112C4.22682 9.64986 3.31073 10.3519 2.63865 10.9598C2.17788 11.3776 1.74057 11.8207 1.32873 12.2868C1.41435 12.4152 1.49996 12.5437 1.58986 12.6678C2.01206 12.1743 2.4638 11.7068 2.94259 11.268C3.8972 10.4118 4.49651 10.1464 4.72339 10.2021C4.7662 10.2021 4.80901 10.232 4.84754 10.3262C5.19428 11.2038 6.27732 10.9555 6.92372 10.8014L7.24478 10.7201C7.54871 10.643 7.84409 10.5702 8.07525 10.536C8.19994 10.5017 8.33155 10.5017 8.45624 10.536C8.72165 10.8956 9.36377 10.8913 10.1043 10.8913H10.6095C11.0376 10.8913 12.0992 10.9298 12.2533 11.2894C12.4112 11.6183 12.6651 11.8917 12.9814 12.0736C13.2978 12.2555 13.6618 12.3373 14.0255 12.3082C14.2514 12.3111 14.4772 12.3011 14.7019 12.2783C14.8046 12.1199 14.9031 11.9572 14.993 11.7945C14.6756 11.8416 14.3549 11.863 14.0341 11.8587C13.5033 11.8373 12.9211 11.7303 12.6557 11.1139C12.4588 10.6558 11.7995 10.4375 10.6052 10.4332H10.1043C9.58637 10.4332 8.94853 10.4332 8.82011 10.262C8.56754 9.91955 7.93826 10.0779 7.13776 10.262C7.0393 10.2877 6.94084 10.3177 6.82526 10.3433C5.9691 10.5403 5.44257 10.5745 5.26705 10.1421C5.23336 10.0509 5.18086 9.96777 5.11295 9.89814C5.62236 10.1978 6.33725 10.0009 6.82526 9.89814L7.14204 9.81253C7.44389 9.71922 7.75128 9.64488 8.06241 9.58993C8.37918 9.54712 8.43912 9.61561 8.4434 9.61989C8.74305 10.0223 9.40229 10.0223 10.1557 10.0223H10.7037C11.4014 10.0223 12.2704 10.1336 12.4459 10.5531C12.5946 10.913 12.8489 11.2193 13.1752 11.4318C13.5015 11.6442 13.8846 11.7528 14.2738 11.7432C14.5355 11.7553 14.7976 11.7438 15.0572 11.7089C15.1385 11.5591 15.2156 11.4093 15.2884 11.2552C14.9649 11.3123 14.6363 11.3353 14.3081 11.3236C13.9976 11.3381 13.6902 11.2561 13.4281 11.0891C13.1661 10.922 12.962 10.678 12.844 10.3904C12.7614 10.2244 12.6409 10.0801 12.4921 9.9693C12.3434 9.85848 12.1706 9.78425 11.9879 9.7526C11.5678 9.64984 11.1359 9.60377 10.7037 9.61561H10.1643C9.56496 9.61561 8.94853 9.61561 8.7773 9.37589C8.49905 8.9949 7.82268 9.18753 7.02218 9.41441L6.7054 9.50431C5.78931 9.73975 5.25421 9.76544 5.03589 9.22606C5.00577 9.15584 4.96694 9.08968 4.92031 9.02914C5.45541 9.35448 6.20455 9.149 6.69684 9.02914L7.02218 8.91784C7.55299 8.75517 8.27645 8.53257 8.42199 8.71665C8.75589 9.14472 9.47079 9.17041 10.2242 9.18325C10.404 9.18325 10.5881 9.18325 10.7679 9.18325C11.8209 9.21322 12.4374 9.43582 12.6043 9.84677C12.7446 10.2383 12.9978 10.5795 13.3321 10.8271C13.6655 11.0726 14.0655 11.2114 14.4793 11.2252C14.755 11.243 15.0318 11.233 15.3055 11.1952L15.374 11.0368C15.4125 10.9469 15.4468 10.8613 15.481 10.7714C15.1651 10.8313 14.8432 10.8528 14.5221 10.8356C14.1799 10.8246 13.8489 10.7113 13.5718 10.5103C13.2957 10.3075 13.0881 10.0252 12.9767 9.70123C12.7413 9.1276 12.0264 8.84507 10.7893 8.7937C10.6052 8.7937 10.4168 8.7937 10.237 8.7937C9.58209 8.7937 8.95281 8.7937 8.74305 8.48548C8.43912 8.08309 7.74135 8.28429 6.91944 8.54113L6.59838 8.63531C5.64804 8.905 5.08298 8.93069 4.81757 8.29713C4.78843 8.23306 4.75407 8.17149 4.71483 8.11306C5.28418 8.51117 6.06328 8.26716 6.58554 8.11306L6.91516 8.00175C7.53159 7.80484 8.23364 7.57368 8.41343 7.80484C8.78158 8.28001 9.51359 8.30141 10.2884 8.32281C10.477 8.31934 10.6657 8.32648 10.8535 8.34422C11.9579 8.39131 12.5915 8.65243 12.7884 9.14472C12.9194 9.56427 13.1712 9.93587 13.5123 10.213C13.8534 10.4902 14.2687 10.6606 14.7062 10.7029C14.9778 10.735 15.2522 10.735 15.5238 10.7029L15.5837 10.5403L15.6565 10.3134C15.3556 10.3774 15.0466 10.3948 14.7404 10.3647C14.3598 10.3302 13.9987 10.1806 13.7051 9.93591C13.4115 9.69124 13.1993 9.36304 13.0966 8.9949C12.8398 8.35706 12.0949 8.0146 10.8449 7.96323L10.2756 7.93326C9.59065 7.93326 8.93997 7.89902 8.67456 7.55655C8.34066 7.12847 7.58296 7.3682 6.77817 7.63361L6.45711 7.73635C6.08694 7.87734 5.69305 7.94565 5.29702 7.93754C5.12912 7.92125 4.96977 7.85573 4.83897 7.74919C4.70446 7.63764 4.60613 7.48864 4.55644 7.32111C4.53023 7.25861 4.49872 7.19846 4.46227 7.14132C4.64403 7.28596 4.8644 7.37381 5.09582 7.39388C5.54841 7.41211 5.99997 7.33782 6.42287 7.17556L6.75677 7.05998C7.43741 6.81598 8.13946 6.56769 8.35778 6.85878C8.76017 7.37676 9.51359 7.40673 10.3098 7.43669C10.511 7.43669 10.7079 7.43669 10.9091 7.46666C12.0521 7.53087 12.7113 7.83908 12.9382 8.41699C13.499 9.80397 14.3252 10.0865 14.8945 10.1807C15.1393 10.2064 15.3861 10.2064 15.6308 10.1807H15.6608C15.695 10.0651 15.725 9.94523 15.7593 9.82965C15.5035 9.87523 15.2423 9.88244 14.9844 9.85105Z" fill="white"/>
<path d="M8.02321 16.024C8.89752 16.029 9.76623 15.8842 10.5917 15.5959C9.02491 15.5959 7.44102 15.6516 5.88281 15.7372C6.57851 15.9383 7.29902 16.0406 8.02321 16.0411V16.024Z" fill="white"/>
<path d="M11.8609 14.6928C11.711 14.5601 11.4328 14.5644 11.0604 14.573C10.6879 14.5815 10.2941 14.5986 9.88314 14.62C9.47219 14.6414 8.99702 14.6671 8.84719 14.6543C8.70588 14.6261 8.56042 14.6261 8.41911 14.6543C8.23504 14.6543 7.99103 14.6971 7.7299 14.7271C7.23221 14.8005 6.73034 14.8419 6.22735 14.8512C6.1169 14.7798 5.98603 14.7467 5.85492 14.757C5.70395 14.7648 5.55373 14.7834 5.40544 14.8127C5.11434 14.8555 4.72907 14.9368 4.25391 15.0481C4.5298 15.2091 4.81577 15.3521 5.11006 15.4762C5.35795 15.4197 5.60984 15.3825 5.86348 15.3649C6.10657 15.4736 6.37794 15.5021 6.6383 15.4462C6.98505 15.4248 7.40457 15.3735 7.78127 15.3307C8.15798 15.2878 8.50045 15.245 8.63743 15.245C8.79316 15.2807 8.95363 15.2908 9.1126 15.275C9.32664 15.275 9.60917 15.275 9.91311 15.2365C10.4182 15.2108 11.2444 15.1723 11.4884 15.1979C11.7636 15.0604 12.0309 14.9074 12.2889 14.7399C12.1458 14.7453 12.0024 14.7367 11.8609 14.7142V14.6928Z" fill="white"/>
<path d="M13.3262 13.5412C12.5 13.5412 12.2689 13.417 12.2218 13.3143C12.1148 13.0617 11.7723 12.9932 11.4555 12.959C11.0911 12.9283 10.725 12.9211 10.3596 12.9376H9.88874C9.55981 12.9675 9.22882 12.9675 8.89988 12.9376C8.71153 12.7364 8.31342 12.7963 7.56428 12.9376C7.19613 13.0061 6.82798 13.0617 6.45984 13.096C6.09169 13.1302 5.92902 13.0531 5.91189 13.0403C5.88938 12.9802 5.8545 12.9256 5.80951 12.8799C5.76453 12.8341 5.71045 12.7984 5.65077 12.7749C5.52234 12.7235 5.13279 12.5651 3.53606 13.3785C3.215 13.5369 2.9025 13.7081 2.63281 13.8622C2.7698 13.9949 2.91534 14.1191 3.06089 14.2389C3.28349 14.1148 3.5275 13.9821 3.78006 13.8579C4.82457 13.3314 5.29546 13.2757 5.42388 13.2757C5.67217 13.8237 6.67815 13.6482 7.65417 13.4769C7.95288 13.4121 8.25641 13.372 8.5617 13.3571C8.7629 13.5369 9.14817 13.5326 9.92727 13.5026H10.3982C10.8564 13.4491 11.3206 13.4796 11.768 13.5925C11.982 14.0206 12.5557 14.0977 13.1678 14.1062C13.3707 13.9332 13.5637 13.7488 13.7457 13.554C13.6302 13.554 13.4889 13.554 13.3476 13.554L13.3262 13.5412Z" fill="white"/>
<path d="M1.15319 6.6834C1.91089 5.24934 2.67715 4.35893 3.1566 4.35893C3.32783 4.35893 3.4691 4.48736 3.58468 4.73992C3.67292 4.99146 3.82933 5.21352 4.03645 5.38133C4.24357 5.54915 4.49324 5.6561 4.75761 5.69026C5.24445 5.70132 5.72746 5.60179 6.17027 5.39916L6.50845 5.26218C7.28756 4.9454 8.02385 4.65002 8.32779 5.03101C8.80296 5.63032 9.61202 5.67313 10.4297 5.7245C10.6437 5.7245 10.8577 5.75019 11.0803 5.77587C12.3132 5.87433 13.0195 6.27672 13.3021 7.03442C13.9527 8.70393 14.7618 9.08492 15.3183 9.23903C15.5056 9.27753 15.6965 9.29477 15.8877 9.2904C15.8877 9.2005 15.9176 9.1106 15.9347 9.02071C15.748 9.03096 15.5607 9.01511 15.3782 8.97362C14.8817 8.84948 14.1497 8.49417 13.5461 6.94881C13.2293 6.09265 12.4288 5.62604 11.0975 5.51474C10.8791 5.48906 10.6694 5.47622 10.4382 5.46337C9.65911 5.41629 8.9271 5.3692 8.5247 4.86406C8.40781 4.73577 8.25628 4.64406 8.0884 4.6C7.92052 4.55594 7.74348 4.56142 7.57865 4.61578C7.17921 4.71086 6.78942 4.8427 6.41428 5.00961L6.08466 5.14232C5.68244 5.32894 5.24381 5.42397 4.80042 5.42057C4.58527 5.38466 4.3838 5.29134 4.21729 5.15044C4.05077 5.00954 3.92539 4.8263 3.85437 4.62006C3.67457 4.28616 3.45197 4.08924 3.17372 4.08496C2.83982 4.08496 2.45455 4.34609 2.02647 4.8555C1.60438 5.387 1.23856 5.96084 0.93487 6.56782C0.599907 7.18536 0.296996 7.81976 0.0273438 8.46849C0.0273438 8.65684 0.0658708 8.84519 0.0915555 9.02927C0.399785 8.22745 0.754259 7.44417 1.15319 6.6834Z" fill="white"/>
</svg>
