<svg width="17" height="17" viewBox="0 0 17 17" fill="none" xmlns="http://www.w3.org/2000/svg">
<path d="M15.9289 6.69568C15.614 4.82386 14.646 3.12418 13.1967 1.89839C11.7475 0.672598 9.91075 0 8.01262 0C6.11449 0 4.27777 0.672598 2.82852 1.89839C1.37927 3.12418 0.411262 4.82386 0.0963421 6.69568C0.0225254 7.13957 -0.00899582 7.58946 0.0022026 8.0393C-0.00591131 10.0788 0.76669 12.044 2.16152 13.532C3.55635 15.0199 5.46767 15.9177 7.50341 16.0412C7.69597 16.0412 8.51755 16.0412 8.71867 16.0412C10.0304 15.9273 11.2938 15.4917 12.397 14.7729C13.5002 14.0541 14.4091 13.0744 15.0431 11.9204C15.9168 10.3277 16.2288 8.48731 15.9289 6.69568ZM12.634 5.80135L6.96853 11.4626C6.80877 11.6233 6.59179 11.7141 6.36518 11.715C6.25225 11.7151 6.14042 11.6929 6.03613 11.6495C5.93185 11.6062 5.83717 11.5427 5.75755 11.4626L3.42546 9.11335C3.26487 8.95277 3.17466 8.73497 3.17466 8.50786C3.17466 8.28076 3.26487 8.06296 3.42546 7.90238C3.58604 7.74179 3.80384 7.65157 4.03095 7.65157C4.25805 7.65157 4.47585 7.74179 4.63643 7.90238L6.38657 9.64824L11.423 4.59038C11.5836 4.42979 11.8014 4.33957 12.0285 4.33957C12.2556 4.33957 12.4734 4.42979 12.634 4.59038C12.7946 4.75096 12.8848 4.96876 12.8848 5.19586C12.8848 5.42297 12.7946 5.64077 12.634 5.80135Z" fill="white"/>
</svg>
