<svg width="17" height="17" viewBox="0 0 17 17" fill="none" xmlns="http://www.w3.org/2000/svg">
<path d="M7.87311 16.04C6.3463 16.0118 4.85927 15.5483 3.58678 14.7042C2.3143 13.86 1.30924 12.6702 0.689732 11.2745C0.0702227 9.87888 -0.137992 8.3354 0.0895581 6.8255C0.317108 5.3156 0.970968 3.90202 1.97429 2.7509C2.97761 1.59978 4.2887 0.758954 5.75347 0.327242C7.21823 -0.104469 8.77581 -0.109124 10.2431 0.313823C11.7105 0.736771 13.0265 1.56975 14.0367 2.71485C15.0469 3.85995 15.7092 5.2696 15.9458 6.77811C16.1257 7.9346 16.0505 9.11644 15.7256 10.2408C15.4006 11.3652 14.8338 12.405 14.0648 13.2873C13.2957 14.1697 12.3431 14.8732 11.2735 15.3487C10.204 15.8242 9.04343 16.0601 7.87311 16.04ZM8.58793 14.4264C9.63759 14.3347 10.6486 13.9861 11.5316 13.4114C12.4147 12.8367 13.1428 12.0535 13.6515 11.1308C14.1118 10.3131 14.3871 9.4044 14.4582 8.46874C14.5293 7.53309 14.3945 6.59323 14.0631 5.71532C13.7317 4.83742 13.2119 4.04282 12.5403 3.38748C11.8686 2.73213 11.0615 2.23198 10.1757 1.92222C9.28986 1.61246 8.3469 1.50063 7.4132 1.59461C6.47949 1.68859 5.57773 1.98609 4.77142 2.46616C3.96511 2.94624 3.27385 3.59721 2.74631 4.37325C2.21876 5.1493 1.86776 6.03154 1.71802 6.95787C1.65554 7.3124 1.6283 7.67225 1.63669 8.03214C1.6269 9.66498 2.2422 11.2397 3.35642 12.4334C4.47065 13.6271 5.99937 14.3494 7.62914 14.4521C7.78323 14.4521 8.4424 14.4521 8.60077 14.4521L8.58793 14.4264ZM7.88167 11.225C7.1559 11.1883 6.46411 10.9062 5.91973 10.4248C5.37534 9.94349 5.01066 9.29148 4.88545 8.5757C4.8511 8.3938 4.83817 8.2085 4.84693 8.02358C4.84663 7.22304 5.1467 6.45151 5.68782 5.8615C6.22894 5.27149 6.97173 4.90594 7.76938 4.83709C8.56702 4.76825 9.36147 5.00114 9.99569 5.48971C10.6299 5.97828 11.0578 6.68699 11.1946 7.47575C11.2327 7.65574 11.2485 7.83973 11.2417 8.02358C11.2434 8.45688 11.1568 8.88599 10.9873 9.28476C10.8178 9.68354 10.5689 10.0437 10.2558 10.3432C9.94264 10.6427 9.5718 10.8753 9.16585 11.0269C8.75991 11.1785 8.32735 11.2459 7.89452 11.225H7.88167Z" fill="white"/>
</svg>
