<svg width="47" height="43" viewBox="0 0 47 43" fill="none" xmlns="http://www.w3.org/2000/svg">
<path d="M45.7605 0.2669L45.7627 0.266882C45.955 0.265239 46.1434 0.319965 46.3044 0.42408C46.4651 0.527983 46.5914 0.676426 46.6677 0.850806C46.7384 1.01632 46.7563 1.19931 46.7192 1.37521C46.6821 1.55134 46.5915 1.71209 46.4594 1.83568L46.4525 1.84205L46.4462 1.84891L29.3946 20.3698L29.3701 20.3964L29.3541 20.4289L29.2291 20.6833L29.2035 20.7355V20.7936V31.5332C29.1991 31.7901 29.0935 32.0353 28.9091 32.216L28.9078 32.2173L19.6033 41.4664L19.6032 41.4664L19.6 41.4697C19.5107 41.5618 19.404 41.6355 19.2858 41.6865C19.1677 41.7375 19.0405 41.7649 18.9116 41.7669L18.8946 41.7672L18.8778 41.7698C18.7875 41.7836 18.6955 41.7621 18.621 41.7101L18.6026 41.6973L18.5822 41.6879L18.5083 41.654L18.501 41.6507L18.4935 41.6478C18.3118 41.5781 18.1584 41.451 18.0568 41.2863C17.9553 41.1216 17.9111 40.9285 17.9308 40.7365L17.9322 40.7238V40.7109V20.7766V20.7277L17.9137 20.6824L17.8171 20.4449L17.7997 20.4023L17.7684 20.3687L0.529191 1.87603L0.529193 1.87603L0.528414 1.8752C0.400037 1.73874 0.312559 1.56955 0.275624 1.38666C0.239084 1.20572 0.253402 1.0183 0.316982 0.84494C0.390526 0.676393 0.511303 0.532161 0.665177 0.4296C0.820298 0.326209 1.00234 0.26965 1.18928 0.266891L45.7605 0.2669Z" fill="#99BBE3" stroke="black" stroke-width="0.5"/>
</svg>
