<svg xmlns="http://www.w3.org/2000/svg" viewBox="0 0 61.44 43.4"><defs><style>.cls-1{fill:#231f20;}.cls-2{fill:#010101;}</style></defs><g id="Layer_2" data-name="Layer 2"><g id="Layer_1-2" data-name="Layer 1"><path class="cls-1" d="M60.55,23.45A47.92,47.92,0,0,0,49.6,14.33l3.89-6.75a1,1,0,0,0-.36-1.36,1,1,0,0,0-1.37.36l-3.9,6.75A36.09,36.09,0,0,0,31.72,8.72V1a1,1,0,0,0-2,0V8.72a36.08,36.08,0,0,0-16.41,4.77l-4-6.91a1,1,0,0,0-1.73,1l4,6.91a47.4,47.4,0,0,0-10.68,9,4.19,4.19,0,0,0,0,5.19c.5.6,12.55,14.76,29.82,14.76S60,29.24,60.55,28.64A4.22,4.22,0,0,0,60.55,23.45ZM59.3,27.6c-.12.14-12.08,14.18-28.58,14.18S2.26,27.74,2.14,27.6a2.57,2.57,0,0,1,0-3.11c.12-.14,12-14.09,28.41-14.18a.5.5,0,0,0,.34,0c16.41.09,28.29,14,28.41,14.18A2.54,2.54,0,0,1,59.3,27.6Z"/><path class="cls-2" d="M30.72,15.88A10.17,10.17,0,1,0,40.89,26,10.17,10.17,0,0,0,30.72,15.88Zm0,18.7A8.54,8.54,0,1,1,39.26,26,8.55,8.55,0,0,1,30.72,34.58Z"/></g></g></svg>