<?xml version="1.0" encoding="utf-8"?>
<!-- Generator: Adobe Illustrator 25.2.1, SVG Export Plug-In . SVG Version: 6.00 Build 0)  -->
<svg version="1.1" id="Layer_1" xmlns="http://www.w3.org/2000/svg" xmlns:xlink="http://www.w3.org/1999/xlink" x="0px" y="0px"
	 viewBox="0 0 83 92" style="enable-background:new 0 0 83 92;" xml:space="preserve">
<style type="text/css">
	.st0{clip-path:url(#SVGID_2_);}
	.st1{clip-path:url(#SVGID_2_);fill:none;}
</style>
<g>
	<g>
		<defs>
			<rect id="SVGID_1_" width="83" height="92"/>
		</defs>
		<clipPath id="SVGID_2_">
			<use xlink:href="#SVGID_1_"  style="overflow:visible;"/>
		</clipPath>
		<g class="st0">
			<path d="M38.9,45.9c-9.4,5.1-18.8,10.3-28,15.8c-1.8,1.3-4-3.4-8.6,0.6c-1.8,1.8-2.2,4.6-0.8,6.8c1.3,2.1,3.9,3.1,6.4,2.3
				c5.3-2.1,2.8-6,4.3-6.9c9.5-5.2,18.8-10.7,28.1-16.4c0-0.5,0-1,0-1.5C39.8,46.5,39.4,46.2,38.9,45.9z M3.2,68
				c-2.2-3.9,3.8-7.2,6-3.3C11.3,68.6,5.5,71.8,3.2,68z"/>
			<path d="M44,45.9C56.5,38.3,68.9,30.5,81.5,23v-0.1C68.7,30,55.7,36.8,42.8,43.7c0,0.5,0,0.9,0,1.4C43.2,45.5,43.6,45.7,44,45.9z
				"/>
			<path d="M80.4,62.2c-4.5-3.5-6.6,0.6-8.1-0.2C63,56.4,53.5,51.1,44,45.9c-0.4,0.3-0.9,0.5-1.3,0.8c0,0.5,0,1,0,1.5
				c9.2,5.5,18.4,11,27.8,16.2c2,0.9-1,5.2,4.8,7.1c2.5,0.7,5.1-0.5,6.3-2.7C82.9,66.6,82.4,63.9,80.4,62.2z M79.7,68
				c-2.3,3.8-8.2,0.3-5.9-3.5C76.2,60.7,81.9,64.1,79.7,68z"/>
			<path d="M40.1,43.8C27.3,36.9,14.3,30.1,1.5,22.9H1.4c12.6,7.5,25,15.3,37.5,22.9c0.4-0.2,0.8-0.5,1.2-0.7
				C40.2,44.8,40.2,44.3,40.1,43.8z"/>
			<path d="M40.2,45.3c-0.4,0.2-0.8,0.5-1.2,0.7c0.4,0.3,0.8,0.5,1.3,0.8C40.2,46.2,40.2,45.8,40.2,45.3z"/>
			<path d="M42.7,46.7c0.4-0.3,0.9-0.5,1.3-0.8c-0.4-0.2-0.8-0.5-1.3-0.7C42.8,45.8,42.8,46.2,42.7,46.7z"/>
			<path d="M42.8,43.8c0.2-10.7,0.4-21.4,0.2-32c-0.2-2.2,5-1.8,3.8-7.7c-0.7-2.5-3-4.2-5.5-4.1s-4.6,1.8-5.2,4.4
				c-0.8,5.6,3.8,5.4,3.8,7.1c-0.2,10.8-0.1,21.6,0.2,32.4c0.5,0.2,0.9,0.5,1.3,0.7C41.9,44.3,42.4,44.1,42.8,43.8z M41.5,2.1
				c4.4,0.1,4.4,6.9-0.1,6.8C36.9,8.7,37,2.1,41.5,2.1z"/>
			<path d="M40.3,48.2c0.4,14.6,1,29.1,1.2,43.7h0.1c0.2-14.6,0.8-29.2,1.2-43.8c-0.4-0.2-0.8-0.5-1.2-0.7
				C41.1,47.7,40.7,48,40.3,48.2z"/>
			<path d="M42.8,45.2c0-0.5,0-0.9,0-1.4c-0.4,0.2-0.9,0.5-1.3,0.7C41.9,44.8,42.3,45,42.8,45.2z"/>
			<path d="M40.2,46.7c0,0.5,0,1,0,1.5c0.4-0.2,0.8-0.5,1.2-0.7C41.1,47.2,40.6,47,40.2,46.7z"/>
			<path d="M41.5,47.5c0.4,0.2,0.8,0.5,1.2,0.7c0-0.5,0-1,0-1.5C42.3,47,41.9,47.2,41.5,47.5z"/>
			<path d="M41.5,44.5c-0.5-0.2-0.9-0.5-1.3-0.7c0,0.5,0,1,0,1.4C40.6,45,41,44.8,41.5,44.5z"/>
			<path d="M41.5,44.5c-0.4,0.2-0.9,0.5-1.3,0.7c0,0.5,0,1,0,1.5c0.4,0.3,0.8,0.5,1.3,0.8c0.4-0.2,0.8-0.5,1.3-0.8c0-0.5,0-1,0-1.5
				C42.3,45,41.9,44.8,41.5,44.5z"/>
		</g>
		<polygon class="st0" points="40.2,43.8 39,46 40.2,48.2 42.7,48.2 44,45.9 42.8,43.8 		"/>
		<path class="st0" d="M38,45.7"/>
		<rect x="39.8" y="43.9" class="st0" width="0.6" height="0.3"/>
		<rect x="39.6" y="44.4" class="st0" width="0.6" height="0.3"/>
		<line class="st1" x1="39.2" y1="45.6" x2="38.9" y2="45.8"/>
		<polygon class="st0" points="38.9,45.8 39,45.9 38.9,45.9 39,46 39.3,45.9 39.2,45.6 39.1,45.6 		"/>
	</g>
</g>
</svg>
