<svg width="51" height="53" viewBox="0 0 51 53" fill="none" xmlns="http://www.w3.org/2000/svg">
<path d="M44.68 52.0392C48.3417 54.3423 52.7357 49.661 50.2897 45.9775C47.7119 42.4215 45.3244 45.0998 44.3651 44.147C38.6455 38.0553 32.7429 32.1437 26.789 26.3446C17.8911 17.6948 8.876 9.17246 0.0806221 0.395065H0.0220337C7.77749 8.64732 15.3572 17.0121 23.0321 25.3094C23.2811 25.5869 23.5447 25.857 23.7644 26.1346C24.0134 26.4122 24.2844 26.6897 24.5407 26.9748L25.6246 26.6447C25.273 26.7347 24.8922 26.8473 24.57 26.9598C24.8117 27.2299 25.0607 27.485 25.3023 27.755C30.934 33.8017 36.6316 39.7958 42.5196 45.6024C43.8671 46.7727 40.8206 49.3909 44.68 52.0392ZM44.9876 46.4426C47.4629 44.0195 51.0001 47.748 48.6126 50.2462C46.2252 52.7443 42.5342 48.8658 44.9876 46.4426Z" fill="#93895E"/>
<path d="M6.33476 52.0392C2.67307 54.3423 -1.72095 49.661 0.717732 45.9775C3.29556 42.4215 5.6903 45.0998 6.64234 44.147C12.3619 38.0553 18.2645 32.1437 24.2184 26.3446C33.1237 17.6948 42.1314 9.17246 50.9268 0.395065H50.9854C43.2299 8.64732 35.6502 17.0121 27.9753 25.3094C27.7263 25.5869 27.4554 25.857 27.2064 26.1346C26.9501 26.4122 26.6791 26.6897 26.4301 26.9748L25.3389 26.6447C25.6904 26.7347 26.0713 26.8473 26.3935 26.9598C26.1591 27.2299 25.9028 27.485 25.6611 27.755C20.0295 33.8017 14.3319 39.7958 8.44389 45.6024C7.14032 46.7727 10.1869 49.3909 6.33476 52.0392ZM6.01985 46.4426C3.54455 44.0195 0.00735496 47.748 2.4021 50.2462C4.79684 52.7443 8.47318 48.8658 6.01985 46.4426Z" fill="#834E46"/>
</svg>
