<svg width="43" height="44" viewBox="0 0 43 44" fill="none" xmlns="http://www.w3.org/2000/svg">
<path d="M34.406 34.7865C32.5828 36.6243 30.4184 38.0822 28.0363 39.0768C25.6542 40.0714 23.101 40.5833 20.5226 40.5833C15.3154 40.5833 10.3213 38.4981 6.63924 34.7865C2.95713 31.0748 0.88855 26.0407 0.88855 20.7917C0.88855 15.5426 2.95713 10.5085 6.63924 6.79684C10.3213 3.08519 15.3154 1 20.5226 1C23.101 1 25.6542 1.51193 28.0363 2.50655C30.4184 3.50117 32.5828 4.95902 34.406 6.79684C36.2292 8.63467 37.6755 10.8165 38.6622 13.2177C39.6489 15.619 40.1567 18.1926 40.1567 20.7917C40.1567 23.3907 39.6489 25.9644 38.6622 28.3656C37.6755 30.7668 36.2292 32.9487 34.406 34.7865ZM34.406 34.7865L42.2235 42.6667" stroke="black" stroke-opacity="0.4" stroke-width="1.5" stroke-linecap="round" stroke-linejoin="round"/>
</svg>
